<?xml version="1.0" encoding="UTF-8"?>
<!DOCTYPE svg PUBLIC "-//W3C//DTD SVG 1.1//EN" "http://www.w3.org/Graphics/SVG/1.1/DTD/svg11.dtd">
<!-- Creator: CorelDRAW 2020 (64-Bit) -->
<svg xmlns="http://www.w3.org/2000/svg" xml:space="preserve" width="94.721mm" height="14.3593mm" version="1.1" style="shape-rendering:geometricPrecision; text-rendering:geometricPrecision; image-rendering:optimizeQuality; fill-rule:evenodd; clip-rule:evenodd"
viewBox="0 0 9518.36 1442.94"
 xmlns:xlink="http://www.w3.org/1999/xlink"
 xmlns:xodm="http://www.corel.com/coreldraw/odm/2003">
 <defs>
  <style type="text/css">
   <![CDATA[
    .fil0 {fill:#FF4800;fill-rule:nonzero}
    .fil1 {fill:white;fill-rule:nonzero}
   ]]>
  </style>
 </defs>
 <g id="Слой_x0020_1">
  <metadata id="CorelCorpID_0Corel-Layer"/>
  <path class="fil0" d="M8626.09 19.48l0 806.81c0,178 -54.57,313.76 -163.7,407.3 -102.64,89.65 -244.25,134.46 -424.83,134.46 -165,0 -297.53,-45.46 -397.56,-136.41 -103.94,-94.84 -155.9,-223.46 -155.9,-385.87l0 -826.3 190.98 0 0 783.43c0,67.56 3.26,116.28 9.74,146.15 10.4,49.38 33.13,91.61 68.21,126.69 75.36,75.35 171.5,113.03 288.42,113.03 135.12,0 239.05,-35.08 311.82,-105.24 54.57,-51.97 81.84,-149.41 81.84,-292.32l0 -771.73 190.99 0zm-2387 661.63c0,147.14 49.69,268.61 149.07,364.1 99.39,95.82 222.49,143.57 369.31,143.57 148.11,0 271.53,-47.42 370.27,-142.59 98.74,-94.84 148.11,-216.64 148.11,-365.07 0,-148.43 -49.37,-270.23 -148.11,-365.07 -98.74,-95.17 -222.16,-142.59 -370.27,-142.59 -149.41,0 -273.16,47.1 -371.24,141.62 -98.09,94.19 -147.14,216.32 -147.14,366.05zm-194.89 0.97c0,-200.08 69.51,-364.42 208.53,-493.05 135.11,-126.02 303.35,-189.04 504.73,-189.04 205.27,0 374.81,61.72 508.63,185.14 136.41,127.32 204.62,292.97 204.62,496.95 0,203.97 -68.21,369.29 -204.62,495.97 -136.41,126.68 -307.25,190 -512.53,190 -201.38,0 -369.95,-64.31 -505.72,-192.93 -135.76,-128.63 -203.65,-292.97 -203.65,-493.05zm-720.77 -498.9l0 415.11 120.83 0c174.1,0 261.14,-68.53 261.14,-205.6l0 -11.7c0,-131.86 -87.04,-197.81 -261.14,-197.81l-120.83 0zm-190.99 -163.7l335.2 0c129.92,0 232.55,28.59 307.91,85.75 85.76,63.67 128.63,158.51 128.63,284.53 0,154.6 -74.06,263.73 -222.17,327.4 44.17,27.6 83.49,62.03 118.56,103.61 25.99,30.85 85.43,118.55 178,262.44l76.33 118.87 102.63 146.49 -226.06 0 -175.39 -272.83c-59.76,-93.55 -107.83,-159.16 -144.21,-196.84 -67.56,-71.46 -137.72,-107.19 -210.47,-107.19l-77.95 0 0 576.85 -190.99 0 0 -1329.09zm-81.57 672.34l0 562.89c-172.8,75.68 -341.69,113.35 -506.69,113.35 -201.38,0 -368.97,-62.35 -502.79,-187.08 -83.9,-77.58 -142.24,-168.65 -175.03,-273.23l350.41 -835.86c98.58,-47.92 209.02,-71.89 331.31,-71.89 133.81,0 292.33,37.68 475.5,113.03l0 194.89c-162.39,-89.65 -322.2,-134.47 -479.4,-134.47 -146.8,0 -268.61,48.4 -365.41,145.52 -96.78,96.79 -145.18,218.91 -145.18,366.05 0,153.63 51.97,276.73 155.9,368.96 100.04,89.97 227.36,134.81 381.97,134.81 63.67,0 107.83,-3.25 132.52,-9.76l155.9 -40.91 0 -272.84 -739 0 -40.15 -173.45 970.14 0zm3820.49 -498.88l0 405.35 218.27 0c70.15,0 126.67,-17.22 169.54,-51.97 42.88,-34.75 64.3,-85.75 64.3,-152.66 0,-133.82 -75.35,-200.72 -226.06,-200.72l-226.06 0zm-190.98 -173.45l417.04 0c126.03,0 226.72,31.83 302.08,95.49 79.25,67.56 118.87,163.04 118.87,286.48 0,126.01 -44.82,220.85 -134.46,284.51 -79.25,57.18 -183.83,85.75 -313.76,85.75l-198.79 0 0 576.85 -190.98 0 0 -1329.09z"/>
  <path class="fil1" d="M2612.72 19.48l0 1155.65 726.23 0 74.12 173.44 -991.33 0 0 -1329.09 190.98 0zm1586.05 0l-561.26 1338.84 -38.98 0 -576.84 -1338.84 190.99 0 401.12 931.22 396.91 -931.22 188.06 0z"/>
  <path class="fil1" d="M647.1 343.71c0,0 -59.92,439.9 -188.22,747.26 -128.3,307.36 -181.19,342.83 -181.19,342.83 0,0 426.96,-134.89 756.4,-144 329.45,-9.11 461.47,46.22 461.47,46.22l508.95 -475.89c0,0 -538.49,-30.21 -910.95,58.8 -372.46,89.01 -598.48,288.03 -598.48,288.03 0,0 213.92,-591.79 152.02,-863.25z"/>
  <path class="fil0" d="M177.55 440.7c426,-411.37 1201.55,-487.14 1709.28,-192.58 0,0 -278.11,29.53 -664.32,270.96 -386.21,241.43 -581.78,477.16 -581.78,477.16 0,0 212.09,-434.75 262.65,-625.44 50.56,-190.7 30.88,-186.18 30.88,-186.18 0,0 -171.65,-57.41 -756.71,256.08z"/>
  <path class="fil0" d="M226.59 1442.94c0,0 38.31,-33.51 95.75,-138.82 57.45,-105.32 57.45,-105.32 57.45,-105.32l-379.79 150c0,0 87.77,70.21 226.59,94.15z"/>
 </g>
</svg>
