<?xml version="1.0" encoding="utf-8"?>
<!-- Generator: Adobe Illustrator 16.0.0, SVG Export Plug-In . SVG Version: 6.00 Build 0)  -->
<!DOCTYPE svg PUBLIC "-//W3C//DTD SVG 1.1//EN" "http://www.w3.org/Graphics/SVG/1.1/DTD/svg11.dtd" />
<svg version="1.1" id="_x3C_Layer_x3E_" xmlns="http://www.w3.org/2000/svg" xmlns:xlink="http://www.w3.org/1999/xlink" x="0px"
	 y="0px" width="32px" height="32px" viewBox="0 0 32 32" enable-background="new 0 0 32 32" xml:space="preserve">
<g id="step_x2C__career_x2C__rise_x2C__promotion_3_">
	<g id="XMLID_7694_">
		<g id="XMLID_7695_">
			
				<polyline id="XMLID_7908_" fill="none" stroke="#ffffff" stroke-linecap="round" stroke-linejoin="round" stroke-miterlimit="10" points="
				30.5,20.5 26.5,20.5 26.5,22.5 22.5,22.5 22.5,24.5 18.5,24.5 18.5,26.5 15.5,26.5 			"/>
			
				<polyline id="XMLID_7907_" fill="none" stroke="#ffffff" stroke-linecap="round" stroke-linejoin="round" stroke-miterlimit="10" points="
				14.5,28.5 10.5,28.5 10.5,30.5 7.5,30.5 			"/>
			
				<line id="XMLID_7906_" fill="none" stroke="#ffffff" stroke-linecap="round" stroke-linejoin="round" stroke-miterlimit="10" x1="10.367" y1="19.353" x2="7.18" y2="28.508"/>
			<path id="XMLID_7905_" fill="none" stroke="#ffffff" stroke-linecap="round" stroke-linejoin="round" stroke-miterlimit="10" d="
				M10.5,30.5H6.983c-1.308,0-2.264-1.234-1.937-2.5l2.026-7.841"/>
			<path id="XMLID_7904_" fill="none" stroke="#ffffff" stroke-linecap="round" stroke-linejoin="round" stroke-miterlimit="10" d="
				M8.679,10.789l-0.982,5.668c-0.231,1.431,0.796,2.757,2.237,2.891l4.818,0.232l-1.545,4.278
				c-0.438,1.297,0.525,2.642,1.895,2.642h0.336"/>
			<path id="XMLID_7903_" fill="none" stroke="#ffffff" stroke-linecap="round" stroke-linejoin="round" stroke-miterlimit="10" d="
				M15.808,11.815l1.552,0.953c0.322,0.268,0.775,0.306,1.137,0.1l3.286-1.806c0.479-0.274,0.646-0.885,0.372-1.364
				S21.27,9.052,20.79,9.326l-2.684,1.461l-2.466-2.055c-0.157-0.132-0.353-0.211-0.557-0.229l-5.045-0.42
				c-0.794-0.066-1.592,0.069-2.32,0.393l-3.625,1.611c-0.29,0.128-0.501,0.387-0.57,0.696l-1,3.967
				c-0.119,0.539,0.221,1.073,0.76,1.193c0.073,0.016,0.146,0.024,0.218,0.024c0.458,0,0.872-0.317,0.976-0.783l0.891-3.475
				L8.7,10.666"/>
			<path id="XMLID_7902_" fill="none" stroke="#ffffff" stroke-linecap="round" stroke-linejoin="round" stroke-miterlimit="10" d="
				M15.156,24.5l2.794-5.42c0.197-0.441,0.169-0.949-0.073-1.366c-0.241-0.417-0.67-0.692-1.148-0.739l-3.902-0.622l1.705-5.792"/>
			
				<circle id="XMLID_7901_" fill="none" stroke="#ffffff" stroke-linecap="round" stroke-linejoin="round" stroke-miterlimit="10" cx="13" cy="4" r="2.5"/>
		</g>
	</g>
	<g id="XMLID_7577_">
		<g id="XMLID_7578_">
			
				<polyline id="XMLID_7693_" fill="none" stroke="#ffffff" stroke-linecap="round" stroke-linejoin="round" stroke-miterlimit="10" points="
				30.5,20.5 26.5,20.5 26.5,22.5 22.5,22.5 22.5,24.5 18.5,24.5 18.5,26.5 15.5,26.5 			"/>
			
				<polyline id="XMLID_7692_" fill="none" stroke="#ffffff" stroke-linecap="round" stroke-linejoin="round" stroke-miterlimit="10" points="
				14.5,28.5 10.5,28.5 10.5,30.5 7.5,30.5 			"/>
			
				<line id="XMLID_7691_" fill="none" stroke="#ffffff" stroke-linecap="round" stroke-linejoin="round" stroke-miterlimit="10" x1="10.367" y1="19.353" x2="7.18" y2="28.508"/>
			<path id="XMLID_7583_" fill="none" stroke="#ffffff" stroke-linecap="round" stroke-linejoin="round" stroke-miterlimit="10" d="
				M10.5,30.5H6.983c-1.308,0-2.264-1.234-1.937-2.5l2.026-7.841"/>
			<path id="XMLID_7582_" fill="none" stroke="#ffffff" stroke-linecap="round" stroke-linejoin="round" stroke-miterlimit="10" d="
				M8.679,10.789l-0.982,5.668c-0.231,1.431,0.796,2.757,2.237,2.891l4.818,0.232l-1.545,4.278
				c-0.438,1.297,0.525,2.642,1.895,2.642h0.336"/>
			<path id="XMLID_7581_" fill="none" stroke="#ffffff" stroke-linecap="round" stroke-linejoin="round" stroke-miterlimit="10" d="
				M15.808,11.815l1.552,0.953c0.322,0.268,0.775,0.306,1.137,0.1l3.286-1.806c0.479-0.274,0.646-0.885,0.372-1.364
				S21.27,9.052,20.79,9.326l-2.684,1.461l-2.466-2.055c-0.157-0.132-0.353-0.211-0.557-0.229l-5.045-0.42
				c-0.794-0.066-1.592,0.069-2.32,0.393l-3.625,1.611c-0.29,0.128-0.501,0.387-0.57,0.696l-1,3.967
				c-0.119,0.539,0.221,1.073,0.76,1.193c0.073,0.016,0.146,0.024,0.218,0.024c0.458,0,0.872-0.317,0.976-0.783l0.891-3.475
				L8.7,10.666"/>
			<path id="XMLID_7580_" fill="none" stroke="#ffffff" stroke-linecap="round" stroke-linejoin="round" stroke-miterlimit="10" d="
				M15.156,24.5l2.794-5.42c0.197-0.441,0.169-0.949-0.073-1.366c-0.241-0.417-0.67-0.692-1.148-0.739l-3.902-0.622l1.705-5.792"/>
			
				<circle id="XMLID_7579_" fill="none" stroke="#ffffff" stroke-linecap="round" stroke-linejoin="round" stroke-miterlimit="10" cx="13" cy="4" r="2.5"/>
		</g>
	</g>
</g>
</svg>
