<?xml version="1.0" encoding="utf-8"?>
<!-- Generator: Adobe Illustrator 16.0.0, SVG Export Plug-In . SVG Version: 6.00 Build 0)  -->
<!DOCTYPE svg PUBLIC "-//W3C//DTD SVG 1.1//EN" "http://www.w3.org/Graphics/SVG/1.1/DTD/svg11.dtd">
<svg version="1.1" id="_x3C_Layer_x3E_" xmlns="http://www.w3.org/2000/svg" xmlns:xlink="http://www.w3.org/1999/xlink" x="0px"
	 y="0px" width="32px" height="32px" viewBox="0 0 32 32" enable-background="new 0 0 32 32" xml:space="preserve">
<g id="Analytics_x2C__board_x2C__chart_x2C__presentation_x2C__report_x2C__training_x2C__person_2_">
	<g id="XMLID_8679_">
		<g id="XMLID_8680_">
			<g id="XMLID_8703_">
				
					<line id="XMLID_8725_" fill="none" stroke="#ffffff" stroke-linecap="round" stroke-linejoin="round" stroke-miterlimit="10" x1="11.5" y1="24.5" x2="30.5" y2="24.5"/>
				
					<path id="XMLID_8724_" fill="none" stroke="#ffffff" stroke-linecap="round" stroke-linejoin="round" stroke-miterlimit="10" d="
					M10,1.5h18.5c0.552,0,1,0.448,1,1v20"/>
				
					<circle id="XMLID_8723_" fill="none" stroke="#ffffff" stroke-linecap="round" stroke-linejoin="round" stroke-miterlimit="10" cx="6" cy="4" r="2.5"/>
				
					<path id="XMLID_8722_" fill="none" stroke="#ffffff" stroke-linecap="round" stroke-linejoin="round" stroke-miterlimit="10" d="
					M9.5,30.5v-20h9c0.553,0,1-0.447,1-1l0,0c0-0.553-0.447-1-1-1c-2.214,0-8.42,0-9.5,0H4.5c-1.657,0-3,1.343-3,3v7
					c0,0.55,0.45,1,1,1s1-0.45,1-1l-2,12"/>
				
					<polyline id="XMLID_8721_" fill="none" stroke="#ffffff" stroke-linecap="round" stroke-linejoin="round" stroke-miterlimit="10" points="
					7.5,30.5 6.5,19 3.5,30.5 				"/>
				
					<line id="XMLID_8720_" fill="none" stroke="#ffffff" stroke-linecap="round" stroke-linejoin="round" stroke-miterlimit="10" x1="3.5" y1="12.5" x2="3.5" y2="18.5"/>
				
					<line id="XMLID_8719_" fill="none" stroke="#ffffff" stroke-linecap="round" stroke-linejoin="round" stroke-miterlimit="10" x1="22.5" y1="3.5" x2="22.4" y2="3.5"/>
				
					<line id="XMLID_8718_" fill="none" stroke="#ffffff" stroke-linecap="round" stroke-linejoin="round" stroke-miterlimit="10" x1="24.5" y1="3.5" x2="24.4" y2="3.5"/>
				
					<line id="XMLID_8717_" fill="none" stroke="#ffffff" stroke-linecap="round" stroke-linejoin="round" stroke-miterlimit="10" x1="26.5" y1="3.5" x2="26.4" y2="3.5"/>
				
					<line id="XMLID_8716_" fill="none" stroke="#ffffff" stroke-linecap="round" stroke-linejoin="round" stroke-miterlimit="10" x1="21.055" y1="15.667" x2="25.945" y2="8.332"/>
				
					<line id="XMLID_8715_" fill="none" stroke="#ffffff" stroke-linecap="round" stroke-linejoin="round" stroke-miterlimit="10" x1="15.439" y1="14.813" x2="19.556" y2="16.186"/>
				
					<line id="XMLID_8714_" fill="none" stroke="#ffffff" stroke-linecap="round" stroke-linejoin="round" stroke-miterlimit="10" x1="11.5" y1="16.5" x2="13.668" y2="15.055"/>
				
					<circle id="XMLID_8713_" fill="none" stroke="#ffffff" stroke-linecap="round" stroke-linejoin="round" stroke-miterlimit="10" cx="26.5" cy="7.5" r="1"/>
				
					<circle id="XMLID_8712_" fill="none" stroke="#ffffff" stroke-linecap="round" stroke-linejoin="round" stroke-miterlimit="10" cx="20.5" cy="16.5" r="1"/>
				
					<circle id="XMLID_8711_" fill="none" stroke="#ffffff" stroke-linecap="round" stroke-linejoin="round" stroke-miterlimit="10" cx="14.5" cy="14.5" r="1"/>
				
					<line id="XMLID_8710_" fill="none" stroke="#ffffff" stroke-linecap="round" stroke-linejoin="round" stroke-miterlimit="10" x1="20.5" y1="22.5" x2="20.5" y2="19.5"/>
				
					<line id="XMLID_8709_" fill="none" stroke="#ffffff" stroke-linecap="round" stroke-linejoin="round" stroke-miterlimit="10" x1="17.5" y1="18.5" x2="17.5" y2="22.5"/>
				
					<line id="XMLID_8708_" fill="none" stroke="#ffffff" stroke-linecap="round" stroke-linejoin="round" stroke-miterlimit="10" x1="11.5" y1="22.5" x2="11.5" y2="19.5"/>
				
					<line id="XMLID_8707_" fill="none" stroke="#ffffff" stroke-linecap="round" stroke-linejoin="round" stroke-miterlimit="10" x1="14.5" y1="17.5" x2="14.5" y2="22.5"/>
				
					<line id="XMLID_8705_" fill="none" stroke="#ffffff" stroke-linecap="round" stroke-linejoin="round" stroke-miterlimit="10" x1="23.5" y1="16.5" x2="23.5" y2="22.5"/>
				
					<line id="XMLID_8704_" fill="none" stroke="#ffffff" stroke-linecap="round" stroke-linejoin="round" stroke-miterlimit="10" x1="26.5" y1="11.5" x2="26.5" y2="22.5"/>
			</g>
			<g id="XMLID_8681_">
				
					<line id="XMLID_8702_" fill="none" stroke="#ffffff" stroke-linecap="round" stroke-linejoin="round" stroke-miterlimit="10" x1="11.5" y1="24.5" x2="30.5" y2="24.5"/>
				
					<path id="XMLID_8701_" fill="none" stroke="#ffffff" stroke-linecap="round" stroke-linejoin="round" stroke-miterlimit="10" d="
					M10,1.5h18.5c0.552,0,1,0.448,1,1v20"/>
				
					<circle id="XMLID_8700_" fill="none" stroke="#ffffff" stroke-linecap="round" stroke-linejoin="round" stroke-miterlimit="10" cx="6" cy="4" r="2.5"/>
				
					<path id="XMLID_8699_" fill="none" stroke="#ffffff" stroke-linecap="round" stroke-linejoin="round" stroke-miterlimit="10" d="
					M9.5,30.5v-20h9c0.553,0,1-0.447,1-1l0,0c0-0.553-0.447-1-1-1c-2.214,0-8.42,0-9.5,0H4.5c-1.657,0-3,1.343-3,3v7
					c0,0.55,0.45,1,1,1s1-0.45,1-1l-2,12"/>
				
					<polyline id="XMLID_8698_" fill="none" stroke="#ffffff" stroke-linecap="round" stroke-linejoin="round" stroke-miterlimit="10" points="
					7.5,30.5 6.5,19 3.5,30.5 				"/>
				
					<line id="XMLID_8697_" fill="none" stroke="#ffffff" stroke-linecap="round" stroke-linejoin="round" stroke-miterlimit="10" x1="3.5" y1="12.5" x2="3.5" y2="18.5"/>
				
					<line id="XMLID_8696_" fill="none" stroke="#ffffff" stroke-linecap="round" stroke-linejoin="round" stroke-miterlimit="10" x1="22.5" y1="3.5" x2="22.4" y2="3.5"/>
				
					<line id="XMLID_8695_" fill="none" stroke="#ffffff" stroke-linecap="round" stroke-linejoin="round" stroke-miterlimit="10" x1="24.5" y1="3.5" x2="24.4" y2="3.5"/>
				
					<line id="XMLID_8694_" fill="none" stroke="#ffffff" stroke-linecap="round" stroke-linejoin="round" stroke-miterlimit="10" x1="26.5" y1="3.5" x2="26.4" y2="3.5"/>
				
					<line id="XMLID_8693_" fill="none" stroke="#ffffff" stroke-linecap="round" stroke-linejoin="round" stroke-miterlimit="10" x1="21.055" y1="15.667" x2="25.945" y2="8.332"/>
				
					<line id="XMLID_8692_" fill="none" stroke="#ffffff" stroke-linecap="round" stroke-linejoin="round" stroke-miterlimit="10" x1="15.439" y1="14.813" x2="19.556" y2="16.186"/>
				
					<line id="XMLID_8691_" fill="none" stroke="#ffffff" stroke-linecap="round" stroke-linejoin="round" stroke-miterlimit="10" x1="11.5" y1="16.5" x2="13.668" y2="15.055"/>
				
					<circle id="XMLID_8690_" fill="none" stroke="#ffffff" stroke-linecap="round" stroke-linejoin="round" stroke-miterlimit="10" cx="26.5" cy="7.5" r="1"/>
				
					<circle id="XMLID_8689_" fill="none" stroke="#ffffff" stroke-linecap="round" stroke-linejoin="round" stroke-miterlimit="10" cx="20.5" cy="16.5" r="1"/>
				
					<circle id="XMLID_8688_" fill="none" stroke="#ffffff" stroke-linecap="round" stroke-linejoin="round" stroke-miterlimit="10" cx="14.5" cy="14.5" r="1"/>
				
					<line id="XMLID_8687_" fill="none" stroke="#ffffff" stroke-linecap="round" stroke-linejoin="round" stroke-miterlimit="10" x1="20.5" y1="22.5" x2="20.5" y2="19.5"/>
				
					<line id="XMLID_8686_" fill="none" stroke="#ffffff" stroke-linecap="round" stroke-linejoin="round" stroke-miterlimit="10" x1="17.5" y1="18.5" x2="17.5" y2="22.5"/>
				
					<line id="XMLID_8685_" fill="none" stroke="#ffffff" stroke-linecap="round" stroke-linejoin="round" stroke-miterlimit="10" x1="11.5" y1="22.5" x2="11.5" y2="19.5"/>
				
					<line id="XMLID_8684_" fill="none" stroke="#ffffff" stroke-linecap="round" stroke-linejoin="round" stroke-miterlimit="10" x1="14.5" y1="17.5" x2="14.5" y2="22.5"/>
				
					<line id="XMLID_8683_" fill="none" stroke="#ffffff" stroke-linecap="round" stroke-linejoin="round" stroke-miterlimit="10" x1="23.5" y1="16.5" x2="23.5" y2="22.5"/>
				
					<line id="XMLID_8682_" fill="none" stroke="#ffffff" stroke-linecap="round" stroke-linejoin="round" stroke-miterlimit="10" x1="26.5" y1="11.5" x2="26.5" y2="22.5"/>
			</g>
		</g>
	</g>
	<g id="XMLID_8611_">
		<g id="XMLID_8612_">
			<g id="XMLID_8657_">
				
					<line id="XMLID_8678_" fill="none" stroke="#ffffff" stroke-linecap="round" stroke-linejoin="round" stroke-miterlimit="10" x1="11.5" y1="24.5" x2="30.5" y2="24.5"/>
				
					<path id="XMLID_8677_" fill="none" stroke="#ffffff" stroke-linecap="round" stroke-linejoin="round" stroke-miterlimit="10" d="
					M10,1.5h18.5c0.552,0,1,0.448,1,1v20"/>
				
					<circle id="XMLID_8676_" fill="none" stroke="#ffffff" stroke-linecap="round" stroke-linejoin="round" stroke-miterlimit="10" cx="6" cy="4" r="2.5"/>
				
					<path id="XMLID_8675_" fill="none" stroke="#ffffff" stroke-linecap="round" stroke-linejoin="round" stroke-miterlimit="10" d="
					M9.5,30.5v-20h9c0.553,0,1-0.447,1-1l0,0c0-0.553-0.447-1-1-1c-2.214,0-8.42,0-9.5,0H4.5c-1.657,0-3,1.343-3,3v7
					c0,0.55,0.45,1,1,1s1-0.45,1-1l-2,12"/>
				
					<polyline id="XMLID_8674_" fill="none" stroke="#ffffff" stroke-linecap="round" stroke-linejoin="round" stroke-miterlimit="10" points="
					7.5,30.5 6.5,19 3.5,30.5 				"/>
				
					<line id="XMLID_8673_" fill="none" stroke="#ffffff" stroke-linecap="round" stroke-linejoin="round" stroke-miterlimit="10" x1="3.5" y1="12.5" x2="3.5" y2="18.5"/>
				
					<line id="XMLID_8672_" fill="none" stroke="#ffffff" stroke-linecap="round" stroke-linejoin="round" stroke-miterlimit="10" x1="22.5" y1="3.5" x2="22.4" y2="3.5"/>
				
					<line id="XMLID_8671_" fill="none" stroke="#ffffff" stroke-linecap="round" stroke-linejoin="round" stroke-miterlimit="10" x1="24.5" y1="3.5" x2="24.4" y2="3.5"/>
				
					<line id="XMLID_8670_" fill="none" stroke="#ffffff" stroke-linecap="round" stroke-linejoin="round" stroke-miterlimit="10" x1="26.5" y1="3.5" x2="26.4" y2="3.5"/>
				
					<line id="XMLID_8669_" fill="none" stroke="#ffffff" stroke-linecap="round" stroke-linejoin="round" stroke-miterlimit="10" x1="21.055" y1="15.667" x2="25.945" y2="8.332"/>
				
					<line id="XMLID_8668_" fill="none" stroke="#ffffff" stroke-linecap="round" stroke-linejoin="round" stroke-miterlimit="10" x1="15.439" y1="14.813" x2="19.556" y2="16.186"/>
				
					<line id="XMLID_8667_" fill="none" stroke="#ffffff" stroke-linecap="round" stroke-linejoin="round" stroke-miterlimit="10" x1="11.5" y1="16.5" x2="13.668" y2="15.055"/>
				
					<circle id="XMLID_8666_" fill="none" stroke="#ffffff" stroke-linecap="round" stroke-linejoin="round" stroke-miterlimit="10" cx="26.5" cy="7.5" r="1"/>
				
					<circle id="XMLID_8665_" fill="none" stroke="#ffffff" stroke-linecap="round" stroke-linejoin="round" stroke-miterlimit="10" cx="20.5" cy="16.5" r="1"/>
				
					<circle id="XMLID_8664_" fill="none" stroke="#ffffff" stroke-linecap="round" stroke-linejoin="round" stroke-miterlimit="10" cx="14.5" cy="14.5" r="1"/>
				
					<line id="XMLID_8663_" fill="none" stroke="#ffffff" stroke-linecap="round" stroke-linejoin="round" stroke-miterlimit="10" x1="20.5" y1="22.5" x2="20.5" y2="19.5"/>
				
					<line id="XMLID_8662_" fill="none" stroke="#ffffff" stroke-linecap="round" stroke-linejoin="round" stroke-miterlimit="10" x1="17.5" y1="18.5" x2="17.5" y2="22.5"/>
				
					<line id="XMLID_8661_" fill="none" stroke="#ffffff" stroke-linecap="round" stroke-linejoin="round" stroke-miterlimit="10" x1="11.5" y1="22.5" x2="11.5" y2="19.5"/>
				
					<line id="XMLID_8660_" fill="none" stroke="#ffffff" stroke-linecap="round" stroke-linejoin="round" stroke-miterlimit="10" x1="14.5" y1="17.5" x2="14.5" y2="22.5"/>
				
					<line id="XMLID_8659_" fill="none" stroke="#ffffff" stroke-linecap="round" stroke-linejoin="round" stroke-miterlimit="10" x1="23.5" y1="16.5" x2="23.5" y2="22.5"/>
				
					<line id="XMLID_8658_" fill="none" stroke="#ffffff" stroke-linecap="round" stroke-linejoin="round" stroke-miterlimit="10" x1="26.5" y1="11.5" x2="26.5" y2="22.5"/>
			</g>
			<g id="XMLID_8635_">
				
					<line id="XMLID_8656_" fill="none" stroke="#ffffff" stroke-linecap="round" stroke-linejoin="round" stroke-miterlimit="10" x1="11.5" y1="24.5" x2="30.5" y2="24.5"/>
				
					<path id="XMLID_8655_" fill="none" stroke="#ffffff" stroke-linecap="round" stroke-linejoin="round" stroke-miterlimit="10" d="
					M10,1.5h18.5c0.552,0,1,0.448,1,1v20"/>
				
					<circle id="XMLID_8654_" fill="none" stroke="#ffffff" stroke-linecap="round" stroke-linejoin="round" stroke-miterlimit="10" cx="6" cy="4" r="2.5"/>
				
					<path id="XMLID_8653_" fill="none" stroke="#ffffff" stroke-linecap="round" stroke-linejoin="round" stroke-miterlimit="10" d="
					M9.5,30.5v-20h9c0.553,0,1-0.447,1-1l0,0c0-0.553-0.447-1-1-1c-2.214,0-8.42,0-9.5,0H4.5c-1.657,0-3,1.343-3,3v7
					c0,0.55,0.45,1,1,1s1-0.45,1-1l-2,12"/>
				
					<polyline id="XMLID_8652_" fill="none" stroke="#ffffff" stroke-linecap="round" stroke-linejoin="round" stroke-miterlimit="10" points="
					7.5,30.5 6.5,19 3.5,30.5 				"/>
				
					<line id="XMLID_8651_" fill="none" stroke="#ffffff" stroke-linecap="round" stroke-linejoin="round" stroke-miterlimit="10" x1="3.5" y1="12.5" x2="3.5" y2="18.5"/>
				
					<line id="XMLID_8650_" fill="none" stroke="#ffffff" stroke-linecap="round" stroke-linejoin="round" stroke-miterlimit="10" x1="22.5" y1="3.5" x2="22.4" y2="3.5"/>
				
					<line id="XMLID_8649_" fill="none" stroke="#ffffff" stroke-linecap="round" stroke-linejoin="round" stroke-miterlimit="10" x1="24.5" y1="3.5" x2="24.4" y2="3.5"/>
				
					<line id="XMLID_8648_" fill="none" stroke="#ffffff" stroke-linecap="round" stroke-linejoin="round" stroke-miterlimit="10" x1="26.5" y1="3.5" x2="26.4" y2="3.5"/>
				
					<line id="XMLID_8647_" fill="none" stroke="#ffffff" stroke-linecap="round" stroke-linejoin="round" stroke-miterlimit="10" x1="21.055" y1="15.667" x2="25.945" y2="8.332"/>
				
					<line id="XMLID_8646_" fill="none" stroke="#ffffff" stroke-linecap="round" stroke-linejoin="round" stroke-miterlimit="10" x1="15.439" y1="14.813" x2="19.556" y2="16.186"/>
				
					<line id="XMLID_8645_" fill="none" stroke="#ffffff" stroke-linecap="round" stroke-linejoin="round" stroke-miterlimit="10" x1="11.5" y1="16.5" x2="13.668" y2="15.055"/>
				
					<circle id="XMLID_8644_" fill="none" stroke="#ffffff" stroke-linecap="round" stroke-linejoin="round" stroke-miterlimit="10" cx="26.5" cy="7.5" r="1"/>
				
					<circle id="XMLID_8643_" fill="none" stroke="#ffffff" stroke-linecap="round" stroke-linejoin="round" stroke-miterlimit="10" cx="20.5" cy="16.5" r="1"/>
				
					<circle id="XMLID_8642_" fill="none" stroke="#ffffff" stroke-linecap="round" stroke-linejoin="round" stroke-miterlimit="10" cx="14.5" cy="14.5" r="1"/>
				
					<line id="XMLID_8641_" fill="none" stroke="#ffffff" stroke-linecap="round" stroke-linejoin="round" stroke-miterlimit="10" x1="20.5" y1="22.5" x2="20.5" y2="19.5"/>
				
					<line id="XMLID_8640_" fill="none" stroke="#ffffff" stroke-linecap="round" stroke-linejoin="round" stroke-miterlimit="10" x1="17.5" y1="18.5" x2="17.5" y2="22.5"/>
				
					<line id="XMLID_8639_" fill="none" stroke="#ffffff" stroke-linecap="round" stroke-linejoin="round" stroke-miterlimit="10" x1="11.5" y1="22.5" x2="11.5" y2="19.5"/>
				
					<line id="XMLID_8638_" fill="none" stroke="#ffffff" stroke-linecap="round" stroke-linejoin="round" stroke-miterlimit="10" x1="14.5" y1="17.5" x2="14.5" y2="22.5"/>
				
					<line id="XMLID_8637_" fill="none" stroke="#ffffff" stroke-linecap="round" stroke-linejoin="round" stroke-miterlimit="10" x1="23.5" y1="16.5" x2="23.5" y2="22.5"/>
				
					<line id="XMLID_8636_" fill="none" stroke="#ffffff" stroke-linecap="round" stroke-linejoin="round" stroke-miterlimit="10" x1="26.5" y1="11.5" x2="26.5" y2="22.5"/>
			</g>
			<g id="XMLID_8613_">
				
					<line id="XMLID_8634_" fill="none" stroke="#ffffff" stroke-linecap="round" stroke-linejoin="round" stroke-miterlimit="10" x1="11.5" y1="24.5" x2="30.5" y2="24.5"/>
				
					<path id="XMLID_8633_" fill="none" stroke="#ffffff" stroke-linecap="round" stroke-linejoin="round" stroke-miterlimit="10" d="
					M10,1.5h18.5c0.552,0,1,0.448,1,1v20"/>
				
					<circle id="XMLID_8632_" fill="none" stroke="#ffffff" stroke-linecap="round" stroke-linejoin="round" stroke-miterlimit="10" cx="6" cy="4" r="2.5"/>
				
					<path id="XMLID_8631_" fill="none" stroke="#ffffff" stroke-linecap="round" stroke-linejoin="round" stroke-miterlimit="10" d="
					M9.5,30.5v-20h9c0.553,0,1-0.447,1-1l0,0c0-0.553-0.447-1-1-1c-2.214,0-8.42,0-9.5,0H4.5c-1.657,0-3,1.343-3,3v7
					c0,0.55,0.45,1,1,1s1-0.45,1-1l-2,12"/>
				
					<polyline id="XMLID_8630_" fill="none" stroke="#ffffff" stroke-linecap="round" stroke-linejoin="round" stroke-miterlimit="10" points="
					7.5,30.5 6.5,19 3.5,30.5 				"/>
				
					<line id="XMLID_8629_" fill="none" stroke="#ffffff" stroke-linecap="round" stroke-linejoin="round" stroke-miterlimit="10" x1="3.5" y1="12.5" x2="3.5" y2="18.5"/>
				
					<line id="XMLID_8628_" fill="none" stroke="#ffffff" stroke-linecap="round" stroke-linejoin="round" stroke-miterlimit="10" x1="22.5" y1="3.5" x2="22.4" y2="3.5"/>
				
					<line id="XMLID_8627_" fill="none" stroke="#ffffff" stroke-linecap="round" stroke-linejoin="round" stroke-miterlimit="10" x1="24.5" y1="3.5" x2="24.4" y2="3.5"/>
				
					<line id="XMLID_8626_" fill="none" stroke="#ffffff" stroke-linecap="round" stroke-linejoin="round" stroke-miterlimit="10" x1="26.5" y1="3.5" x2="26.4" y2="3.5"/>
				
					<line id="XMLID_8625_" fill="none" stroke="#ffffff" stroke-linecap="round" stroke-linejoin="round" stroke-miterlimit="10" x1="21.055" y1="15.667" x2="25.945" y2="8.332"/>
				
					<line id="XMLID_8624_" fill="none" stroke="#ffffff" stroke-linecap="round" stroke-linejoin="round" stroke-miterlimit="10" x1="15.439" y1="14.813" x2="19.556" y2="16.186"/>
				
					<line id="XMLID_8623_" fill="none" stroke="#ffffff" stroke-linecap="round" stroke-linejoin="round" stroke-miterlimit="10" x1="11.5" y1="16.5" x2="13.668" y2="15.055"/>
				
					<circle id="XMLID_8622_" fill="none" stroke="#ffffff" stroke-linecap="round" stroke-linejoin="round" stroke-miterlimit="10" cx="26.5" cy="7.5" r="1"/>
				
					<circle id="XMLID_8621_" fill="none" stroke="#ffffff" stroke-linecap="round" stroke-linejoin="round" stroke-miterlimit="10" cx="20.5" cy="16.5" r="1"/>
				
					<circle id="XMLID_8620_" fill="none" stroke="#ffffff" stroke-linecap="round" stroke-linejoin="round" stroke-miterlimit="10" cx="14.5" cy="14.5" r="1"/>
				
					<line id="XMLID_8619_" fill="none" stroke="#ffffff" stroke-linecap="round" stroke-linejoin="round" stroke-miterlimit="10" x1="20.5" y1="22.5" x2="20.5" y2="19.5"/>
				
					<line id="XMLID_8618_" fill="none" stroke="#ffffff" stroke-linecap="round" stroke-linejoin="round" stroke-miterlimit="10" x1="17.5" y1="18.5" x2="17.5" y2="22.5"/>
				
					<line id="XMLID_8617_" fill="none" stroke="#ffffff" stroke-linecap="round" stroke-linejoin="round" stroke-miterlimit="10" x1="11.5" y1="22.5" x2="11.5" y2="19.5"/>
				
					<line id="XMLID_8616_" fill="none" stroke="#ffffff" stroke-linecap="round" stroke-linejoin="round" stroke-miterlimit="10" x1="14.5" y1="17.5" x2="14.5" y2="22.5"/>
				
					<line id="XMLID_8615_" fill="none" stroke="#ffffff" stroke-linecap="round" stroke-linejoin="round" stroke-miterlimit="10" x1="23.5" y1="16.5" x2="23.5" y2="22.5"/>
				
					<line id="XMLID_8614_" fill="none" stroke="#ffffff" stroke-linecap="round" stroke-linejoin="round" stroke-miterlimit="10" x1="26.5" y1="11.5" x2="26.5" y2="22.5"/>
			</g>
		</g>
	</g>
</g>
</svg>
