<?xml version="1.0" encoding="utf-8"?>
<!-- Generator: Adobe Illustrator 16.0.0, SVG Export Plug-In . SVG Version: 6.00 Build 0)  -->
<!DOCTYPE svg PUBLIC "-//W3C//DTD SVG 1.1//EN" "http://www.w3.org/Graphics/SVG/1.1/DTD/svg11.dtd">
<svg version="1.1" id="_x3C_Layer_x3E_" xmlns="http://www.w3.org/2000/svg" xmlns:xlink="http://www.w3.org/1999/xlink" x="0px"
	 y="0px" width="32px" height="32px" viewBox="0 0 32 32" enable-background="new 0 0 32 32" xml:space="preserve">
<g id="mission_x2C__goal_x2C__astronaut_x2C__moon_x2C__flag_2_">
	<g id="XMLID_11699_">
		<g id="XMLID_11700_">
			
				<path id="XMLID_11718_" fill="none" stroke="#ffffff" stroke-linecap="round" stroke-linejoin="round" stroke-miterlimit="10" d="
				M13.5,22.585c0.815-0.056,1.65-0.085,2.5-0.085c6.265,0,11.714,1.587,14.508,3.925"/>
			
				<path id="XMLID_11717_" fill="none" stroke="#ffffff" stroke-linecap="round" stroke-linejoin="round" stroke-miterlimit="10" d="
				M1.492,26.425c1.015-0.85,2.38-1.6,4.008-2.211"/>
			
				<path id="XMLID_11716_" fill="none" stroke="#ffffff" stroke-linecap="round" stroke-linejoin="round" stroke-miterlimit="10" d="
				M4.517,9.83C3.325,10.388,2.5,11.597,2.5,13v6c0,0.829,0.671,1.5,1.5,1.5l0,0c0.829,0,1.5-0.671,1.5-1.5v-5.5v15
				c0,1.104,0.896,2,2,2l0,0c1.104,0,2-0.896,2-2v-8v8c0,1.104,0.896,2,2,2l0,0c1.104,0,2-0.896,2-2v-16h5"/>
			
				<path id="XMLID_11715_" fill="none" stroke="#ffffff" stroke-linecap="round" stroke-linejoin="round" stroke-miterlimit="10" d="
				M22.5,11L22.5,11c0-0.829-0.671-1.5-1.5-1.5h-7.5h-2"/>
			
				<path id="XMLID_11714_" fill="none" stroke="#ffffff" stroke-linecap="round" stroke-linejoin="round" stroke-miterlimit="10" d="
				M9,4.5h2.5c0.552,0,1,0.448,1,1v3c0,0.552-0.448,1-1,1h-4c-0.552,0-1-0.448-1-1"/>
			<path id="XMLID_11713_" fill="none" stroke="#ffffff" stroke-miterlimit="10" d="M11.5,9.5h-4c-0.552,0-1-0.448-1-1v-3
				c0-1.657,1.343-3,3-3l0,0c1.657,0,3,1.343,3,3v3C12.5,9.052,12.052,9.5,11.5,9.5z"/>
			
				<path id="XMLID_11712_" fill="none" stroke="#ffffff" stroke-linecap="round" stroke-linejoin="round" stroke-miterlimit="10" d="
				M10,15.5H8.5c-0.552,0-1-0.448-1-1v-2c0-0.552,0.448-1,1-1h2c0.552,0,1,0.448,1,1v2"/>
			
				<polyline id="XMLID_11711_" fill="none" stroke="#ffffff" stroke-linecap="round" stroke-linejoin="round" stroke-miterlimit="10" points="
				22.5,1.5 30.5,1.5 30.5,7.5 20.5,7.5 20.5,1.5 			"/>
			
				<path id="XMLID_11710_" fill="none" stroke="#ffffff" stroke-linecap="round" stroke-linejoin="round" stroke-miterlimit="10" d="
				M15.628,25.364C15.241,25.272,15,25.143,15,25c0-0.276,0.896-0.5,2-0.5s2,0.224,2,0.5"/>
			
				<path id="XMLID_11709_" fill="none" stroke="#ffffff" stroke-linecap="round" stroke-linejoin="round" stroke-miterlimit="10" d="
				M23.466,27.395C22.878,27.303,22.5,27.161,22.5,27c0-0.276,1.119-0.5,2.5-0.5s2.5,0.224,2.5,0.5"/>
			
				<path id="XMLID_11708_" fill="none" stroke="#ffffff" stroke-linecap="round" stroke-linejoin="round" stroke-miterlimit="10" d="
				M21,9.5L21,9.5c0.829,0,1.5,0.671,1.5,1.5l0,0c0,0.829-0.671,1.5-1.5,1.5l0,0c-0.654,0-1.209-0.418-1.415-1.001"/>
			
				<line id="XMLID_11707_" fill="none" stroke="#ffffff" stroke-linecap="round" stroke-linejoin="round" stroke-miterlimit="10" x1="3.5" y1="27.5" x2="3.4" y2="27.5"/>
			
				<line id="XMLID_11706_" fill="none" stroke="#ffffff" stroke-linecap="round" stroke-linejoin="round" stroke-miterlimit="10" x1="15.6" y1="29.5" x2="15.5" y2="29.5"/>
			
				<line id="XMLID_11705_" fill="none" stroke="#ffffff" stroke-linecap="round" stroke-linejoin="round" stroke-miterlimit="10" x1="17.6" y1="28.5" x2="17.5" y2="28.5"/>
			
				<line id="XMLID_11704_" fill="none" stroke="#ffffff" stroke-linecap="round" stroke-linejoin="round" stroke-miterlimit="10" x1="7.5" y1="23.4" x2="7.5" y2="23.5"/>
			
				<line id="XMLID_11703_" fill="none" stroke="#ffffff" stroke-linecap="round" stroke-linejoin="round" stroke-miterlimit="10" x1="11.5" y1="23.4" x2="11.5" y2="23.5"/>
			
				<line id="XMLID_11702_" fill="none" stroke="#ffffff" stroke-linecap="round" stroke-linejoin="round" stroke-miterlimit="10" x1="20.5" y1="10.5" x2="20.5" y2="6.5"/>
			
				<line id="XMLID_11701_" fill="none" stroke="#ffffff" stroke-linecap="round" stroke-linejoin="round" stroke-miterlimit="10" x1="20.5" y1="28.5" x2="20.5" y2="12.5"/>
		</g>
	</g>
	<g id="XMLID_6702_">
		<g id="XMLID_6703_">
			<path id="XMLID_6736_" fill="none" stroke="#ffffff" stroke-linecap="round" stroke-linejoin="round" stroke-miterlimit="10" d="
				M13.5,22.585c0.815-0.056,1.65-0.085,2.5-0.085c6.265,0,11.714,1.587,14.508,3.925"/>
			<path id="XMLID_6735_" fill="none" stroke="#ffffff" stroke-linecap="round" stroke-linejoin="round" stroke-miterlimit="10" d="
				M1.492,26.425c1.015-0.85,2.38-1.6,4.008-2.211"/>
			<path id="XMLID_6734_" fill="none" stroke="#ffffff" stroke-linecap="round" stroke-linejoin="round" stroke-miterlimit="10" d="
				M4.517,9.83C3.325,10.388,2.5,11.597,2.5,13v6c0,0.829,0.671,1.5,1.5,1.5l0,0c0.829,0,1.5-0.671,1.5-1.5v-5.5v15
				c0,1.104,0.896,2,2,2l0,0c1.104,0,2-0.896,2-2v-8v8c0,1.104,0.896,2,2,2l0,0c1.104,0,2-0.896,2-2v-16h5"/>
			<path id="XMLID_6718_" fill="none" stroke="#ffffff" stroke-linecap="round" stroke-linejoin="round" stroke-miterlimit="10" d="
				M22.5,11L22.5,11c0-0.829-0.671-1.5-1.5-1.5h-7.5h-2"/>
			<path id="XMLID_6717_" fill="none" stroke="#ffffff" stroke-linecap="round" stroke-linejoin="round" stroke-miterlimit="10" d="
				M9,4.5h2.5c0.552,0,1,0.448,1,1v3c0,0.552-0.448,1-1,1h-4c-0.552,0-1-0.448-1-1"/>
			<path id="XMLID_6716_" fill="none" stroke="#ffffff" stroke-linecap="round" stroke-linejoin="round" stroke-miterlimit="10" d="
				M11.5,9.5h-4c-0.552,0-1-0.448-1-1v-3c0-1.657,1.343-3,3-3l0,0c1.657,0,3,1.343,3,3v3C12.5,9.052,12.052,9.5,11.5,9.5z"/>
			<path id="XMLID_6715_" fill="none" stroke="#ffffff" stroke-linecap="round" stroke-linejoin="round" stroke-miterlimit="10" d="
				M10,15.5H8.5c-0.552,0-1-0.448-1-1v-2c0-0.552,0.448-1,1-1h2c0.552,0,1,0.448,1,1v2"/>
			
				<polyline id="XMLID_6714_" fill="none" stroke="#ffffff" stroke-linecap="round" stroke-linejoin="round" stroke-miterlimit="10" points="
				22.5,1.5 30.5,1.5 30.5,7.5 20.5,7.5 20.5,1.5 			"/>
			<path id="XMLID_6713_" fill="none" stroke="#ffffff" stroke-linecap="round" stroke-linejoin="round" stroke-miterlimit="10" d="
				M15.628,25.364C15.241,25.272,15,25.143,15,25c0-0.276,0.896-0.5,2-0.5s2,0.224,2,0.5"/>
			<path id="XMLID_6712_" fill="none" stroke="#ffffff" stroke-linecap="round" stroke-linejoin="round" stroke-miterlimit="10" d="
				M23.466,27.395C22.878,27.303,22.5,27.161,22.5,27c0-0.276,1.119-0.5,2.5-0.5s2.5,0.224,2.5,0.5"/>
			<path id="XMLID_6711_" fill="none" stroke="#ffffff" stroke-linecap="round" stroke-linejoin="round" stroke-miterlimit="10" d="
				M21,9.5L21,9.5c0.829,0,1.5,0.671,1.5,1.5l0,0c0,0.829-0.671,1.5-1.5,1.5l0,0c-0.654,0-1.209-0.418-1.415-1.001"/>
			
				<line id="XMLID_6710_" fill="none" stroke="#ffffff" stroke-linecap="round" stroke-linejoin="round" stroke-miterlimit="10" x1="3.5" y1="27.5" x2="3.4" y2="27.5"/>
			
				<line id="XMLID_6709_" fill="none" stroke="#ffffff" stroke-linecap="round" stroke-linejoin="round" stroke-miterlimit="10" x1="15.6" y1="29.5" x2="15.5" y2="29.5"/>
			
				<line id="XMLID_6708_" fill="none" stroke="#ffffff" stroke-linecap="round" stroke-linejoin="round" stroke-miterlimit="10" x1="17.6" y1="28.5" x2="17.5" y2="28.5"/>
			
				<line id="XMLID_6707_" fill="none" stroke="#ffffff" stroke-linecap="round" stroke-linejoin="round" stroke-miterlimit="10" x1="7.5" y1="23.4" x2="7.5" y2="23.5"/>
			
				<line id="XMLID_6706_" fill="none" stroke="#ffffff" stroke-linecap="round" stroke-linejoin="round" stroke-miterlimit="10" x1="11.5" y1="23.4" x2="11.5" y2="23.5"/>
			
				<line id="XMLID_6705_" fill="none" stroke="#ffffff" stroke-linecap="round" stroke-linejoin="round" stroke-miterlimit="10" x1="20.5" y1="10.5" x2="20.5" y2="6.5"/>
			
				<line id="XMLID_6704_" fill="none" stroke="#ffffff" stroke-linecap="round" stroke-linejoin="round" stroke-miterlimit="10" x1="20.5" y1="28.5" x2="20.5" y2="12.5"/>
		</g>
	</g>
</g>
</svg>
