<?xml version="1.0" encoding="utf-8"?>
<!-- Generator: Adobe Illustrator 16.0.0, SVG Export Plug-In . SVG Version: 6.00 Build 0)  -->
<!DOCTYPE svg PUBLIC "-//W3C//DTD SVG 1.1//EN" "http://www.w3.org/Graphics/SVG/1.1/DTD/svg11.dtd">
<svg version="1.1" id="_x3C_Layer_x3E_" xmlns="http://www.w3.org/2000/svg" xmlns:xlink="http://www.w3.org/1999/xlink" x="0px"
	 y="0px" width="32px" height="32px" viewBox="0 0 32 32" enable-background="new 0 0 32 32" xml:space="preserve">
<g id="employee_x2C__user_x2C__person_x2C__office_worker_x2C__worker_x2C__work">
	<g id="XMLID_92_">
		<polygon id="XMLID_5917_" fill="#E6CAA0" points="1.5,20.5 28.5,20.5 28.5,30.5 18,30.5 1.5,30.5 		"/>
		<circle id="XMLID_82_" fill="#F2590D" cx="13.5" cy="6" r="2.5"/>
		<path id="XMLID_5662_" fill="#F2590D" d="M18.5,13c0-1.381-1.119-2.5-2.5-2.5h-5.094c-0.742,0-1.423,0.411-1.77,1.067l-2.331,4.42
			c-0.289,0.532-0.277,1.161,0.032,1.682S7.693,18.5,8.299,18.5h6.821c0.553,0,1-0.447,1-1c0-0.186-0.064-0.351-0.153-0.5H18.5V13z"
			/>
		<polygon id="XMLID_295_" fill="#78909C" points="23.5,12.5 21.5,18.5 13.5,18.5 15.5,12.5 		"/>
	</g>
	<g id="XMLID_91_">
		
			<circle id="XMLID_5927_" fill="none" stroke="#455A64" stroke-linecap="round" stroke-linejoin="round" stroke-miterlimit="10" cx="13.5" cy="6" r="2.5"/>
		<path id="XMLID_5664_" fill="none" stroke="#455A64" stroke-linecap="round" stroke-linejoin="round" stroke-miterlimit="10" d="
			M17.138,10.773C16.797,10.599,16.41,10.5,16,10.5h-5.094c-0.742,0-1.423,0.411-1.77,1.067l-2.331,4.42
			c-0.289,0.532-0.277,1.161,0.032,1.682S7.693,18.5,8.299,18.5H30.5"/>
		
			<polyline id="XMLID_5666_" fill="none" stroke="#455A64" stroke-linecap="round" stroke-linejoin="round" stroke-miterlimit="10" points="
			10.426,13.528 8.805,16.5 12,16.5 		"/>
		
			<polygon id="XMLID_293_" fill="none" stroke="#455A64" stroke-linecap="round" stroke-linejoin="round" stroke-miterlimit="10" points="
			21.5,18.5 13.5,18.5 15.5,12.5 23.5,12.5 		"/>
		
			<line id="XMLID_5764_" fill="none" stroke="#455A64" stroke-linecap="round" stroke-linejoin="round" stroke-miterlimit="10" x1="1.5" y1="18.5" x2="18.5" y2="18.5"/>
		
			<polyline id="XMLID_5757_" fill="none" stroke="#455A64" stroke-linecap="round" stroke-linejoin="round" stroke-miterlimit="10" points="
			1.5,20.5 28.5,20.5 28.5,30.5 1.5,30.5 		"/>
		
			<line id="XMLID_261_" fill="none" stroke="#455A64" stroke-linecap="round" stroke-linejoin="round" stroke-miterlimit="10" x1="18.398" y1="15.5" x2="18.5" y2="15.5"/>
	</g>
</g>
</svg>
