<?xml version="1.0" encoding="utf-8"?>
<!-- Generator: Adobe Illustrator 16.0.0, SVG Export Plug-In . SVG Version: 6.00 Build 0)  -->
<!DOCTYPE svg PUBLIC "-//W3C//DTD SVG 1.1//EN" "http://www.w3.org/Graphics/SVG/1.1/DTD/svg11.dtd">
<svg version="1.1" id="_x3C_Layer_x3E_" xmlns="http://www.w3.org/2000/svg" xmlns:xlink="http://www.w3.org/1999/xlink" x="0px"
	 y="0px" width="32px" height="32px" viewBox="0 0 32 32" enable-background="new 0 0 32 32" xml:space="preserve">
<g id="person_x2C__money_x2C__coins_x2C__finance_x2C__banker">
	<g id="XMLID_188_">
		<rect id="XMLID_6154_" x="22.5" y="28.5" fill="#FFF176" width="7" height="2"/>
		<rect id="XMLID_6153_" x="22.5" y="29" fill="#FFFFFF" width="1.5" height="1"/>
		<rect id="XMLID_6152_" x="27" y="29" fill="#E6D96A" width="2" height="1"/>
		<rect id="XMLID_6151_" x="24" y="29" fill="#FFF5A2" width="1" height="1"/>
		<rect id="XMLID_6148_" x="23.5" y="26.5" fill="#FFF176" width="7" height="2"/>
		<rect id="XMLID_6147_" x="23.5" y="27" fill="#FFFFFF" width="1.5" height="1"/>
		<rect id="XMLID_6146_" x="28" y="27" fill="#E6D96A" width="2" height="1"/>
		<rect id="XMLID_6145_" x="25" y="27" fill="#FFF5A2" width="1" height="1"/>
		<rect id="XMLID_6142_" x="22.5" y="24.5" fill="#FFF176" width="7" height="2"/>
		<rect id="XMLID_6141_" x="22.5" y="25" fill="#FFFFFF" width="1.5" height="1"/>
		<rect id="XMLID_6140_" x="27" y="25" fill="#E6D96A" width="2" height="1"/>
		<rect id="XMLID_6139_" x="24" y="25" fill="#FFF5A2" width="1" height="1"/>
		<rect id="XMLID_6136_" x="23.5" y="22.5" fill="#FFF176" width="7" height="2"/>
		<rect id="XMLID_6135_" x="23.5" y="23" fill="#FFFFFF" width="1.5" height="1"/>
		<rect id="XMLID_6134_" x="28" y="23" fill="#E6D96A" width="2" height="1"/>
		<rect id="XMLID_6133_" x="25" y="23" fill="#FFF5A2" width="1" height="1"/>
		<rect id="XMLID_6130_" x="22.5" y="20.5" fill="#FFF176" width="7" height="2"/>
		<rect id="XMLID_6129_" x="23" y="21" fill="#FFFFFF" width="1" height="1"/>
		<rect id="XMLID_6128_" x="27" y="21" fill="#E6D96A" width="2" height="1"/>
		<rect id="XMLID_6127_" x="24" y="21" fill="#FFF5A2" width="1" height="1"/>
		<rect id="XMLID_6124_" x="23.5" y="18.5" fill="#FFF176" width="7" height="2"/>
		<rect id="XMLID_6123_" x="23.5" y="19" fill="#FFFFFF" width="1.5" height="1"/>
		<rect id="XMLID_6122_" x="28" y="19" fill="#E6D96A" width="2" height="1"/>
		<rect id="XMLID_6121_" x="25" y="19" fill="#FFF5A2" width="1" height="1"/>
		<rect id="XMLID_6117_" x="12.5" y="28.5" fill="#FFF176" width="7" height="2"/>
		<rect id="XMLID_6116_" x="12.5" y="29" fill="#FFFFFF" width="1.5" height="1"/>
		<rect id="XMLID_6115_" x="17" y="29" fill="#E6D96A" width="2" height="1"/>
		<rect id="XMLID_6114_" x="14" y="29" fill="#FFF5A2" width="1" height="1"/>
		<rect id="XMLID_6111_" x="13.5" y="26.5" fill="#FFF176" width="7" height="2"/>
		<rect id="XMLID_6110_" x="13.5" y="27" fill="#FFFFFF" width="1.5" height="1"/>
		<rect id="XMLID_6109_" x="18" y="27" fill="#E6D96A" width="2" height="1"/>
		<rect id="XMLID_6108_" x="15" y="27" fill="#FFF5A2" width="1" height="1"/>
		<rect id="XMLID_6105_" x="12.5" y="24.5" fill="#FFF176" width="7" height="2"/>
		<rect id="XMLID_6104_" x="13" y="25" fill="#FFFFFF" width="1" height="1"/>
		<rect id="XMLID_6103_" x="17" y="25" fill="#E6D96A" width="2" height="1"/>
		<rect id="XMLID_6102_" x="14" y="25" fill="#FFF5A2" width="1" height="1"/>
		<rect id="XMLID_6099_" x="13.5" y="22.5" fill="#FFF176" width="7" height="2"/>
		<rect id="XMLID_6098_" x="13.5" y="23" fill="#FFFFFF" width="1.5" height="1"/>
		<rect id="XMLID_6097_" x="18" y="23" fill="#E6D96A" width="2" height="1"/>
		<rect id="XMLID_6096_" x="15" y="23" fill="#FFF5A2" width="1" height="1"/>
		<circle id="XMLID_6088_" fill="#FFFFFF" cx="27" cy="14" r="3.499"/>
		<path id="XMLID_6084_" fill="#FFF176" d="M28,11.5c-1.932,0-3.499,1.567-3.499,3.5c0,0.711,0.215,1.369,0.578,1.922
			C25.631,17.285,26.29,17.5,27,17.5c1.932,0,3.499-1.567,3.499-3.5c0-0.711-0.215-1.369-0.579-1.922
			C29.368,11.715,28.71,11.5,28,11.5z"/>
		<circle id="XMLID_189_" fill="#FFFFFF" cx="17" cy="18" r="3.499"/>
		<path id="XMLID_6005_" fill="#FFF176" d="M18,15.5c-1.932,0-3.499,1.567-3.499,3.5c0,0.711,0.215,1.369,0.578,1.922
			C15.631,21.285,16.29,21.5,17,21.5c1.932,0,3.499-1.567,3.499-3.5c0-0.711-0.215-1.369-0.579-1.922
			C19.368,15.715,18.71,15.5,18,15.5z"/>
		<path id="XMLID_6179_" fill="#FF8A80" d="M9.5,8.5h-4c-1.657,0-3,1.343-3,3v1c0,1.104,0.896,2,2,2l0,0v5L2.5,31h2.031l2.968-11.5
			L8.5,31h2V14.5l0,0c1.104,0,2-0.896,2-2v-1C12.5,9.85,11.15,8.5,9.5,8.5z"/>
		<circle id="XMLID_182_" fill="#FFE0B2" cx="7.5" cy="4" r="2.5"/>
	</g>
	<g id="XMLID_187_">
		
			<rect id="XMLID_6150_" x="22.5" y="28.5" fill="none" stroke="#455A64" stroke-linecap="round" stroke-linejoin="round" stroke-miterlimit="10" width="7" height="2"/>
		
			<polyline id="XMLID_6144_" fill="none" stroke="#455A64" stroke-linecap="round" stroke-linejoin="round" stroke-miterlimit="10" points="
			23.5,26.5 23.5,28.5 30.5,28.5 30.5,26.5 23.5,26.5 		"/>
		
			<rect id="XMLID_6138_" x="22.5" y="24.5" fill="none" stroke="#455A64" stroke-linecap="round" stroke-linejoin="round" stroke-miterlimit="10" width="7" height="2"/>
		
			<polyline id="XMLID_6132_" fill="none" stroke="#455A64" stroke-linecap="round" stroke-linejoin="round" stroke-miterlimit="10" points="
			23.5,22.5 23.5,24.5 30.5,24.5 30.5,22.5 23.5,22.5 		"/>
		
			<rect id="XMLID_6126_" x="22.5" y="20.5" fill="none" stroke="#455A64" stroke-linecap="round" stroke-linejoin="round" stroke-miterlimit="10" width="7" height="2"/>
		
			<polyline id="XMLID_6120_" fill="none" stroke="#455A64" stroke-linecap="round" stroke-linejoin="round" stroke-miterlimit="10" points="
			23.5,20.5 30.5,20.5 30.5,18.5 23.5,18.5 		"/>
		
			<rect id="XMLID_6113_" x="12.5" y="28.5" fill="none" stroke="#455A64" stroke-linecap="round" stroke-linejoin="round" stroke-miterlimit="10" width="7" height="2"/>
		
			<polyline id="XMLID_6107_" fill="none" stroke="#455A64" stroke-linecap="round" stroke-linejoin="round" stroke-miterlimit="10" points="
			13.5,26.5 13.5,28.5 20.5,28.5 20.5,26.5 13.5,26.5 		"/>
		
			<rect id="XMLID_6101_" x="12.5" y="24.5" fill="none" stroke="#455A64" stroke-linecap="round" stroke-linejoin="round" stroke-miterlimit="10" width="7" height="2"/>
		
			<polyline id="XMLID_6095_" fill="none" stroke="#455A64" stroke-linecap="round" stroke-linejoin="round" stroke-miterlimit="10" points="
			13.5,24.5 20.5,24.5 20.5,22.5 13.5,22.5 		"/>
		
			<circle id="XMLID_200_" fill="none" stroke="#455A64" stroke-linecap="round" stroke-linejoin="round" stroke-miterlimit="10" cx="27" cy="14" r="3.499"/>
		
			<circle id="XMLID_6009_" fill="none" stroke="#455A64" stroke-linecap="round" stroke-linejoin="round" stroke-miterlimit="10" cx="17" cy="18" r="3.499"/>
		<path id="XMLID_6178_" fill="none" stroke="#455A64" stroke-linecap="round" stroke-linejoin="round" stroke-miterlimit="10" d="
			M10.5,30.5v-16l0,0c0.739,0,1.385-0.401,1.731-0.998c0.171-0.295,0.269-0.637,0.269-1.002v-1c0-1.65-1.35-3-3-3h-4
			c-1.657,0-3,1.343-3,3v1c0,1.104,0.896,2,2,2l0,0v5l-2,11"/>
		
			<circle id="XMLID_6177_" fill="none" stroke="#455A64" stroke-linecap="round" stroke-linejoin="round" stroke-miterlimit="10" cx="7.5" cy="4" r="2.5"/>
		<path id="XMLID_6172_" fill="none" stroke="#455A64" stroke-linecap="round" stroke-linejoin="round" stroke-miterlimit="10" d="
			M10.5,13v-0.319c0-0.618-0.555-1.088-1.165-0.986l-3.67,0.611C5.055,12.408,4.5,11.938,4.5,11.319"/>
		<path id="XMLID_6171_" fill="none" stroke="#455A64" stroke-linecap="round" stroke-linejoin="round" stroke-miterlimit="10" d="
			M4.5,14.5"/>
		
			<polyline id="XMLID_6170_" fill="none" stroke="#455A64" stroke-linecap="round" stroke-linejoin="round" stroke-miterlimit="10" points="
			8.5,30.5 7.5,19 4.5,30.5 		"/>
		
			<line id="XMLID_6169_" fill="none" stroke="#455A64" stroke-linecap="round" stroke-linejoin="round" stroke-miterlimit="10" x1="6.5" y1="14.5" x2="10.5" y2="14.5"/>
	</g>
</g>
</svg>
