<?xml version="1.0" encoding="utf-8"?>
<!-- Generator: Adobe Illustrator 16.0.0, SVG Export Plug-In . SVG Version: 6.00 Build 0)  -->
<!DOCTYPE svg PUBLIC "-//W3C//DTD SVG 1.1//EN" "http://www.w3.org/Graphics/SVG/1.1/DTD/svg11.dtd">
<svg version="1.1" id="_x3C_Layer_x3E_" xmlns="http://www.w3.org/2000/svg" xmlns:xlink="http://www.w3.org/1999/xlink" x="0px"
	 y="0px" width="32px" height="32px" viewBox="0 0 32 32" enable-background="new 0 0 32 32" xml:space="preserve">
<g id="partners_x2C__handshake_x2C__arrangement_x2C__contract_x2C__businessmen">
	<g id="XMLID_80_">
		<circle id="XMLID_116_" fill="#F2590D" cx="23" cy="4" r="2.5"/>
		<circle id="XMLID_114_" fill="#F2590D" cx="8" cy="4" r="2.5"/>
		<path id="XMLID_3798_" fill="#F2590D" d="M26.748,11.229C26.607,9.683,25.312,8.5,23.76,8.5H23c-1.099,0-2.022,0.714-2.357,1.7
			l-1.605,4.013L15.229,15.6c-0.519,0.188-0.787,0.763-0.598,1.281c0.147,0.406,0.531,0.659,0.939,0.659
			c0.114,0,0.229-0.02,0.342-0.061l4.229-1.539c0.136-0.049,0.257-0.128,0.358-0.228V15v2.5L19,31h2l1.603-6.553L22.1,21.1l1.4,9.9
			h2V19.5h2L26.748,11.229z"/>
		<path id="XMLID_50_" fill="#F2590D" d="M7.5,23c0,0.275-0.225,0.5-0.5,0.5H3c-0.275,0-0.5-0.225-0.5-0.5v-3
			c0-0.275,0.225-0.5,0.5-0.5h4c0.275,0,0.5,0.225,0.5,0.5V23z"/>
		<path id="XMLID_89_" fill="#F2590D" d="M29.5,20v3c0,0.276-0.224,0.5-0.5,0.5h-4c-0.276,0-0.5-0.224-0.5-0.5v-3
			c0-0.276,0.224-0.5,0.5-0.5h4C29.276,19.5,29.5,19.724,29.5,20z"/>
		<path id="XMLID_3813_" fill="#F2590D" d="M15.771,15.6l-3.808-1.386L10.357,10.2C10.022,9.214,9.099,8.5,8,8.5H7
			c-1.381,0-2.5,1.119-2.5,2.5v8c0,0.276,0.224,0.5,0.5,0.5h0.5V31h2l0.813-7.347L7.5,20L10,31h2l-1.5-13.5v-1.789
			c0.101,0.1,0.222,0.178,0.358,0.228l4.229,1.539c0.113,0.042,0.228,0.061,0.342,0.061c0.408,0,0.792-0.252,0.939-0.659
			C16.557,16.362,16.29,15.788,15.771,15.6z"/>
	</g>
	<g id="XMLID_77_">
		
			<circle id="XMLID_90_" fill="none" stroke="#455A64" stroke-linecap="round" stroke-linejoin="round" stroke-miterlimit="10" cx="23" cy="4" r="2.5"/>
		
			<circle id="XMLID_88_" fill="none" stroke="#455A64" stroke-linecap="round" stroke-linejoin="round" stroke-miterlimit="10" cx="8" cy="4" r="2.5"/>
		
			<line id="XMLID_3799_" fill="none" stroke="#455A64" stroke-linecap="round" stroke-linejoin="round" stroke-miterlimit="10" x1="22.1" y1="21.1" x2="23.428" y2="30.494"/>
		<path id="XMLID_79_" fill="none" stroke="#455A64" stroke-linecap="round" stroke-linejoin="round" stroke-miterlimit="10" d="
			M15.571,17.54c0.114,0,0.229-0.02,0.342-0.061l4.229-1.539c0.136-0.049,0.257-0.128,0.358-0.228V15v2.5l-1.444,12.993"/>
		<path id="XMLID_81_" fill="none" stroke="#455A64" stroke-linecap="round" stroke-linejoin="round" stroke-miterlimit="10" d="
			M27.5,19.5l-0.752-8.271C26.607,9.683,25.312,8.5,23.76,8.5H23c-1.099,0-2.022,0.714-2.357,1.7l-1.605,4.013L15.5,15.501"/>
		
			<line id="XMLID_78_" fill="none" stroke="#455A64" stroke-linecap="round" stroke-linejoin="round" stroke-miterlimit="10" x1="25.5" y1="30.5" x2="25.5" y2="23.5"/>
		<path id="XMLID_53_" fill="none" stroke="#455A64" stroke-miterlimit="10" d="M5.5,23.5H3c-0.275,0-0.5-0.225-0.5-0.5v-3
			c0-0.275,0.225-0.5,0.5-0.5h2.5"/>
		<path id="XMLID_87_" fill="none" stroke="#455A64" stroke-miterlimit="10" d="M29,23.5h-4c-0.276,0-0.5-0.224-0.5-0.5v-3
			c0-0.276,0.224-0.5,0.5-0.5h4c0.276,0,0.5,0.224,0.5,0.5v3C29.5,23.276,29.276,23.5,29,23.5z"/>
		<path id="XMLID_3814_" fill="none" stroke="#455A64" stroke-linecap="round" stroke-linejoin="round" stroke-miterlimit="10" d="
			M10.858,15.939l4.229,1.539c0.113,0.042,0.228,0.061,0.342,0.061c0.408,0,0.792-0.252,0.939-0.659
			c0.189-0.519-0.079-1.093-0.598-1.281l-3.808-1.386L10.357,10.2C10.022,9.214,9.099,8.5,8,8.5H7c-1.381,0-2.5,1.119-2.5,2.5v8
			c0,0.276,0.224,0.5,0.5,0.5h0.5v11"/>
		
			<polyline id="XMLID_3815_" fill="none" stroke="#455A64" stroke-linecap="round" stroke-linejoin="round" stroke-miterlimit="10" points="
			11.944,30.493 10.5,17.5 10.5,17.5 		"/>
		
			<line id="XMLID_3816_" fill="none" stroke="#455A64" stroke-linecap="round" stroke-linejoin="round" stroke-miterlimit="10" x1="7.5" y1="20" x2="9.885" y2="30.493"/>
		<path id="XMLID_3817_" fill="none" stroke="#455A64" stroke-linecap="round" stroke-linejoin="round" stroke-miterlimit="10" d="
			M11.962,14.213l3.808,1.386c0.519,0.188,0.787,0.763,0.598,1.281c-0.147,0.406-0.531,0.659-0.939,0.659
			c-0.114,0-0.229-0.02-0.342-0.061l-4.229-1.539c-0.268-0.097-0.481-0.304-0.587-0.568L8.99,12.168"/>
	</g>
</g>
</svg>
