<?xml version="1.0" encoding="utf-8"?>
<!-- Generator: Adobe Illustrator 16.0.0, SVG Export Plug-In . SVG Version: 6.00 Build 0)  -->
<!DOCTYPE svg PUBLIC "-//W3C//DTD SVG 1.1//EN" "http://www.w3.org/Graphics/SVG/1.1/DTD/svg11.dtd">
<svg version="1.1" id="_x3C_Layer_x3E_" xmlns="http://www.w3.org/2000/svg" xmlns:xlink="http://www.w3.org/1999/xlink" x="0px"
	 y="0px" width="32px" height="32px" viewBox="0 0 32 32" enable-background="new 0 0 32 32" xml:space="preserve">
<g id="customer_survey_questionnaire_1_">
	<g id="XMLID_33_">
		<polygon id="XMLID_4395_" fill="#FFF5A2" points="10,30.5 30.5,30.5 30.5,7.5 24.5,1.5 10,1.5 		"/>
		<polygon id="XMLID_34_" fill="#FFFFFF" points="24.5,7.5 24.5,1.5 30.479,7.5 		"/>
		<rect id="XMLID_4082_" x="13.5" y="24.5" fill="#FFF176" width="2" height="2"/>
		<rect id="XMLID_4063_" x="13.5" y="18.5" fill="#FFF176" width="2" height="2"/>
		<path id="XMLID_309_" fill="#80D8FF" d="M9.5,31V18.5c0,0.55,0.45,1,1,1s1-0.45,1-1v-7c0-1.65-1.35-3-3-3h-4c-1.657,0-3,1.343-3,3
			v7c0,0.55,0.45,1,1,1s1-0.45,1-1V31H9.5z"/>
		<circle id="XMLID_317_" fill="#FFE0B2" cx="6.5" cy="4" r="2.5"/>
	</g>
	<g id="XMLID_31_">
		<g id="XMLID_876_">
			
				<polyline id="XMLID_1195_" fill="none" stroke="#455A64" stroke-linecap="round" stroke-linejoin="round" stroke-miterlimit="10" points="
				11.5,30.5 30.5,30.5 30.5,7.5 24.5,1.5 10.5,1.5 			"/>
			
				<polyline id="XMLID_1194_" fill="none" stroke="#455A64" stroke-linecap="round" stroke-linejoin="round" stroke-miterlimit="10" points="
				24.5,1.5 30.479,7.5 24.5,7.5 24.5,4 			"/>
			
				<rect id="XMLID_1193_" x="13.5" y="24.5" fill="none" stroke="#455A64" stroke-linecap="round" stroke-linejoin="round" stroke-miterlimit="10" width="2" height="2"/>
			
				<rect id="XMLID_1192_" x="13.5" y="18.5" fill="none" stroke="#455A64" stroke-linecap="round" stroke-linejoin="round" stroke-miterlimit="10" width="2" height="2"/>
			
				<line id="XMLID_1191_" fill="none" stroke="#455A64" stroke-linecap="round" stroke-linejoin="round" stroke-miterlimit="10" x1="24.5" y1="14.5" x2="26.5" y2="14.5"/>
			
				<line id="XMLID_1190_" fill="none" stroke="#455A64" stroke-linecap="round" stroke-linejoin="round" stroke-miterlimit="10" x1="18.5" y1="20.5" x2="23.5" y2="20.5"/>
			
				<line id="XMLID_1189_" fill="none" stroke="#455A64" stroke-linecap="round" stroke-linejoin="round" stroke-miterlimit="10" x1="22.5" y1="18.5" x2="27.5" y2="18.5"/>
			
				<line id="XMLID_1188_" fill="none" stroke="#455A64" stroke-linecap="round" stroke-linejoin="round" stroke-miterlimit="10" x1="18.5" y1="18.5" x2="20.5" y2="18.5"/>
			
				<line id="XMLID_1184_" fill="none" stroke="#455A64" stroke-linecap="round" stroke-linejoin="round" stroke-miterlimit="10" x1="18.5" y1="14.5" x2="22.5" y2="14.5"/>
			
				<line id="XMLID_1183_" fill="none" stroke="#455A64" stroke-linecap="round" stroke-linejoin="round" stroke-miterlimit="10" x1="21.5" y1="12.5" x2="26.5" y2="12.5"/>
			
				<line id="XMLID_1182_" fill="none" stroke="#455A64" stroke-linecap="round" stroke-linejoin="round" stroke-miterlimit="10" x1="18.5" y1="12.5" x2="19.5" y2="12.5"/>
			
				<line id="XMLID_1181_" fill="none" stroke="#455A64" stroke-linecap="round" stroke-linejoin="round" stroke-miterlimit="10" x1="18.5" y1="8.5" x2="20.5" y2="8.5"/>
			
				<line id="XMLID_1180_" fill="none" stroke="#455A64" stroke-linecap="round" stroke-linejoin="round" stroke-miterlimit="10" x1="18.5" y1="6.5" x2="22.5" y2="6.5"/>
			
				<polyline id="XMLID_1179_" fill="none" stroke="#455A64" stroke-linecap="round" stroke-linejoin="round" stroke-miterlimit="10" points="
				13.5,13.1 14.6,14.5 16.6,12.438 			"/>
			
				<polyline id="XMLID_1178_" fill="none" stroke="#455A64" stroke-linecap="round" stroke-linejoin="round" stroke-miterlimit="10" points="
				13.5,7.1 14.6,8.5 16.6,6.438 			"/>
			<path id="XMLID_1174_" fill="none" stroke="#455A64" stroke-linecap="round" stroke-linejoin="round" stroke-miterlimit="10" d="
				M9.5,30.5v-18v6c0,0.55,0.45,1,1,1s1-0.45,1-1v-7c0-1.65-1.35-3-3-3h-4c-1.657,0-3,1.343-3,3v7c0,0.55,0.45,1,1,1s1-0.45,1-1v-6
				v18"/>
			
				<circle id="XMLID_1173_" fill="none" stroke="#455A64" stroke-linecap="round" stroke-linejoin="round" stroke-miterlimit="10" cx="6.5" cy="4" r="2.5"/>
			
				<path id="XMLID_1171_" fill="none" stroke="#455A64" stroke-linecap="round" stroke-linejoin="round" stroke-miterlimit="10" stroke-dasharray="0,2" d="
				M9.5,30.5"/>
			
				<line id="XMLID_1170_" fill="none" stroke="#455A64" stroke-linecap="round" stroke-linejoin="round" stroke-miterlimit="10" x1="18.5" y1="26.5" x2="19.5" y2="26.5"/>
			
				<line id="XMLID_1169_" fill="none" stroke="#455A64" stroke-linecap="round" stroke-linejoin="round" stroke-miterlimit="10" x1="23.5" y1="24.5" x2="24.5" y2="24.5"/>
			
				<line id="XMLID_1168_" fill="none" stroke="#455A64" stroke-linecap="round" stroke-linejoin="round" stroke-miterlimit="10" x1="26.5" y1="24.5" x2="27.5" y2="24.5"/>
			
				<line id="XMLID_1166_" fill="none" stroke="#455A64" stroke-linecap="round" stroke-linejoin="round" stroke-miterlimit="10" x1="18.5" y1="24.5" x2="21.5" y2="24.5"/>
			
				<line id="XMLID_1164_" fill="none" stroke="#455A64" stroke-linecap="round" stroke-linejoin="round" stroke-miterlimit="10" x1="21.5" y1="26.5" x2="23.5" y2="26.5"/>
			
				<line id="XMLID_877_" fill="#FFE0B2" stroke="#455A64" stroke-linecap="round" stroke-linejoin="round" stroke-miterlimit="10" x1="6.5" y1="30.5" x2="6.5" y2="20.5"/>
		</g>
		<g id="XMLID_850_">
			
				<polyline id="XMLID_875_" fill="none" stroke="#455A64" stroke-linecap="round" stroke-linejoin="round" stroke-miterlimit="10" points="
				11.5,30.5 30.5,30.5 30.5,7.5 24.5,1.5 10.5,1.5 			"/>
			
				<polyline id="XMLID_874_" fill="none" stroke="#455A64" stroke-linecap="round" stroke-linejoin="round" stroke-miterlimit="10" points="
				24.5,1.5 30.479,7.5 24.5,7.5 24.5,4 			"/>
			
				<rect id="XMLID_873_" x="13.5" y="24.5" fill="none" stroke="#455A64" stroke-linecap="round" stroke-linejoin="round" stroke-miterlimit="10" width="2" height="2"/>
			
				<rect id="XMLID_872_" x="13.5" y="18.5" fill="none" stroke="#455A64" stroke-linecap="round" stroke-linejoin="round" stroke-miterlimit="10" width="2" height="2"/>
			
				<line id="XMLID_871_" fill="none" stroke="#455A64" stroke-linecap="round" stroke-linejoin="round" stroke-miterlimit="10" x1="24.5" y1="14.5" x2="26.5" y2="14.5"/>
			
				<line id="XMLID_870_" fill="none" stroke="#455A64" stroke-linecap="round" stroke-linejoin="round" stroke-miterlimit="10" x1="18.5" y1="20.5" x2="23.5" y2="20.5"/>
			
				<line id="XMLID_869_" fill="none" stroke="#455A64" stroke-linecap="round" stroke-linejoin="round" stroke-miterlimit="10" x1="22.5" y1="18.5" x2="27.5" y2="18.5"/>
			
				<line id="XMLID_868_" fill="none" stroke="#455A64" stroke-linecap="round" stroke-linejoin="round" stroke-miterlimit="10" x1="18.5" y1="18.5" x2="20.5" y2="18.5"/>
			
				<line id="XMLID_867_" fill="none" stroke="#455A64" stroke-linecap="round" stroke-linejoin="round" stroke-miterlimit="10" x1="18.5" y1="14.5" x2="22.5" y2="14.5"/>
			
				<line id="XMLID_866_" fill="none" stroke="#455A64" stroke-linecap="round" stroke-linejoin="round" stroke-miterlimit="10" x1="21.5" y1="12.5" x2="26.5" y2="12.5"/>
			
				<line id="XMLID_865_" fill="none" stroke="#455A64" stroke-linecap="round" stroke-linejoin="round" stroke-miterlimit="10" x1="18.5" y1="12.5" x2="19.5" y2="12.5"/>
			
				<line id="XMLID_864_" fill="none" stroke="#455A64" stroke-linecap="round" stroke-linejoin="round" stroke-miterlimit="10" x1="18.5" y1="8.5" x2="20.5" y2="8.5"/>
			
				<line id="XMLID_863_" fill="none" stroke="#455A64" stroke-linecap="round" stroke-linejoin="round" stroke-miterlimit="10" x1="18.5" y1="6.5" x2="22.5" y2="6.5"/>
			
				<polyline id="XMLID_862_" fill="none" stroke="#455A64" stroke-linecap="round" stroke-linejoin="round" stroke-miterlimit="10" points="
				13.5,13.1 14.6,14.5 16.6,12.438 			"/>
			
				<polyline id="XMLID_861_" fill="none" stroke="#455A64" stroke-linecap="round" stroke-linejoin="round" stroke-miterlimit="10" points="
				13.5,7.1 14.6,8.5 16.6,6.438 			"/>
			<path id="XMLID_860_" fill="none" stroke="#455A64" stroke-linecap="round" stroke-linejoin="round" stroke-miterlimit="10" d="
				M9.5,30.5v-18v6c0,0.55,0.45,1,1,1s1-0.45,1-1v-7c0-1.65-1.35-3-3-3h-4c-1.657,0-3,1.343-3,3v7c0,0.55,0.45,1,1,1s1-0.45,1-1v-6
				v18"/>
			
				<circle id="XMLID_859_" fill="none" stroke="#455A64" stroke-linecap="round" stroke-linejoin="round" stroke-miterlimit="10" cx="6.5" cy="4" r="2.5"/>
			<path id="XMLID_857_" fill="none" stroke="#455A64" stroke-linecap="round" stroke-linejoin="round" stroke-miterlimit="10" d="
				M9.5,30.5"/>
			
				<line id="XMLID_856_" fill="none" stroke="#455A64" stroke-linecap="round" stroke-linejoin="round" stroke-miterlimit="10" x1="18.5" y1="26.5" x2="19.5" y2="26.5"/>
			
				<line id="XMLID_855_" fill="none" stroke="#455A64" stroke-linecap="round" stroke-linejoin="round" stroke-miterlimit="10" x1="23.5" y1="24.5" x2="24.5" y2="24.5"/>
			
				<line id="XMLID_854_" fill="none" stroke="#455A64" stroke-linecap="round" stroke-linejoin="round" stroke-miterlimit="10" x1="26.5" y1="24.5" x2="27.5" y2="24.5"/>
			
				<line id="XMLID_853_" fill="none" stroke="#455A64" stroke-linecap="round" stroke-linejoin="round" stroke-miterlimit="10" x1="18.5" y1="24.5" x2="21.5" y2="24.5"/>
			
				<line id="XMLID_852_" fill="none" stroke="#455A64" stroke-linecap="round" stroke-linejoin="round" stroke-miterlimit="10" x1="21.5" y1="26.5" x2="23.5" y2="26.5"/>
			
				<line id="XMLID_851_" fill="none" stroke="#455A64" stroke-linecap="round" stroke-linejoin="round" stroke-miterlimit="10" x1="6.5" y1="30.5" x2="6.5" y2="20.5"/>
		</g>
	</g>
</g>
</svg>
