<?xml version="1.0" encoding="utf-8"?>
<!-- Generator: Adobe Illustrator 16.0.0, SVG Export Plug-In . SVG Version: 6.00 Build 0)  -->
<!DOCTYPE svg PUBLIC "-//W3C//DTD SVG 1.1//EN" "http://www.w3.org/Graphics/SVG/1.1/DTD/svg11.dtd">
<svg version="1.1" id="_x3C_Layer_x3E_" xmlns="http://www.w3.org/2000/svg" xmlns:xlink="http://www.w3.org/1999/xlink" x="0px"
	 y="0px" width="32px" height="32px" viewBox="0 0 32 32" enable-background="new 0 0 32 32" xml:space="preserve">
<g id="creative_idea_x2C__bulb_x2C__idea_x2C__light_x2C__person_x2C__solution">
	<g id="XMLID_270_">
		<path id="XMLID_4873_" fill="#FFF5A2" d="M28.5,15.5c0-3.736-3.416-6.676-7.295-5.864c-2.286,0.478-4.126,2.34-4.582,4.631
			c-0.51,2.559,0.61,4.901,2.506,6.19c0.841,0.571,1.371,1.496,1.371,2.514V24.5h4v-1.532c0-0.996,0.494-1.927,1.323-2.479
			C27.437,19.415,28.5,17.584,28.5,15.5z"/>
		<path id="XMLID_4872_" fill="#FFFFFF" d="M17.623,15.767c0.456-2.291,2.296-4.153,4.582-4.631c2.27-0.475,4.374,0.34,5.735,1.841
			c-1.12-2.412-3.793-3.956-6.735-3.341c-2.286,0.478-4.126,2.34-4.582,4.631c-0.403,2.026,0.225,3.909,1.441,5.248
			C17.549,18.406,17.354,17.119,17.623,15.767z"/>
		<path id="XMLID_4870_" fill="#A9E4FF" d="M23.5,28.5h-2c-0.553,0-1-0.447-1-1v-3h4v3C24.5,28.053,24.053,28.5,23.5,28.5z"/>
		<path id="XMLID_4848_" fill="#FF8A80" d="M17.5,1.5c-0.553,0-1,0.447-1,1v3.56c0,0.731-0.478,1.376-1.177,1.59L12.536,8.5H7.355
			c-0.862,0-1.682,0.37-2.252,1.017l-1.381,1.567c-1.452,1.66-1.283,4.192,0.376,5.645l1.742,1.524
			c0.19,0.166,0.425,0.248,0.658,0.248H6.5L4.399,31h2L9.5,19.5L10.6,31h1.9V10.806l3.547-1.239c1.47-0.513,2.453-1.899,2.453-3.455
			V2.5C18.5,1.947,18.053,1.5,17.5,1.5z M6.5,16.171l-1.084-0.949c-0.831-0.727-0.916-1.991-0.188-2.822l1.097-1.253
			C6.386,11.078,6.5,11.121,6.5,11.213V16.171z"/>
		<circle id="XMLID_267_" fill="#FFE0B2" cx="10" cy="4" r="2.5"/>
	</g>
	<g id="XMLID_268_">
		<g id="XMLID_596_">
			<path id="XMLID_619_" fill="none" stroke="#455A64" stroke-linecap="round" stroke-linejoin="round" stroke-miterlimit="10" d="
				M20.5,24.5h4v-1.532c0-0.996,0.494-1.927,1.323-2.479c1.613-1.074,2.677-2.905,2.677-4.989c0-3.736-3.416-6.676-7.295-5.864
				c-2.286,0.478-4.126,2.34-4.582,4.631c-0.51,2.559,0.61,4.901,2.506,6.19c0.577,0.393,1.008,0.951,1.222,1.592"/>
			<path id="XMLID_610_" fill="none" stroke="#455A64" stroke-linecap="round" stroke-linejoin="round" stroke-miterlimit="10" d="
				M20.5,26.5v1c0,0.553,0.447,1,1,1h2c0.553,0,1-0.447,1-1v-3"/>
			<path id="XMLID_609_" fill="none" stroke="#455A64" stroke-linecap="round" stroke-linejoin="round" stroke-miterlimit="10" d="
				M21,16.5h2.691c0.371,0,0.613,0.391,0.447,0.724L22.5,20.5v4"/>
			<path id="XMLID_607_" fill="none" stroke="#455A64" stroke-linecap="round" stroke-linejoin="round" stroke-miterlimit="10" d="
				M12.5,30.5V10.806l3.547-1.239c1.47-0.513,2.453-1.899,2.453-3.455V2.5c0-0.553-0.447-1-1-1s-1,0.447-1,1v3.56
				c0,0.731-0.478,1.376-1.177,1.59L12.536,8.5H7.355c-0.862,0-1.682,0.37-2.252,1.017l-1.381,1.567
				c-1.452,1.66-1.283,4.192,0.376,5.645l1.742,1.524c0.19,0.166,0.425,0.248,0.658,0.248H6.5l-2.016,12"/>
			<path id="XMLID_605_" fill="none" stroke="#455A64" stroke-linecap="round" stroke-linejoin="round" stroke-miterlimit="10" d="
				M6.5,16.171l-1.084-0.949c-0.831-0.727-0.916-1.991-0.188-2.822l1.097-1.253C6.386,11.078,6.5,11.121,6.5,11.213V13.5"/>
			<path id="XMLID_604_" fill="none" stroke="#455A64" stroke-linecap="round" stroke-linejoin="round" stroke-miterlimit="10" d="
				M5.416,15.223l1.742,1.524c0.416,0.364,0.458,0.995,0.094,1.411C7.055,18.384,6.777,18.5,6.499,18.5
				c-0.233,0-0.468-0.082-0.658-0.248l-1.742-1.524"/>
			
				<polyline id="XMLID_603_" fill="none" stroke="#455A64" stroke-linecap="round" stroke-linejoin="round" stroke-miterlimit="10" points="
				10.5,30.5 9.5,19 6.5,30.5 			"/>
			
				<circle id="XMLID_602_" fill="none" stroke="#455A64" stroke-linecap="round" stroke-linejoin="round" stroke-miterlimit="10" cx="10" cy="4" r="2.5"/>
			
				<line id="XMLID_601_" fill="none" stroke="#455A64" stroke-linecap="round" stroke-linejoin="round" stroke-miterlimit="10" x1="18.5" y1="30.5" x2="18.4" y2="30.5"/>
			
				<line id="XMLID_600_" fill="none" stroke="#455A64" stroke-linecap="round" stroke-linejoin="round" stroke-miterlimit="10" x1="16.5" y1="30.5" x2="12.5" y2="30.5"/>
			<path id="XMLID_599_" fill="none" stroke="#455A64" stroke-linecap="round" stroke-linejoin="round" stroke-miterlimit="10" d="
				M27.317,8.496c1.399,0.964,2.495,2.337,3.116,3.947"/>
			
				<line id="XMLID_598_" fill="none" stroke="#455A64" stroke-linecap="round" stroke-linejoin="round" stroke-miterlimit="10" x1="25.5" y1="7.5" x2="25.43" y2="7.47"/>
			
				<line id="XMLID_597_" fill="#FFF5A2" stroke="#455A64" stroke-linecap="round" stroke-linejoin="round" stroke-miterlimit="10" x1="22.5" y1="26.5" x2="24.5" y2="26.5"/>
		</g>
		<g id="XMLID_458_">
			<path id="XMLID_595_" fill="none" stroke="#455A64" stroke-linecap="round" stroke-linejoin="round" stroke-miterlimit="10" d="
				M20.5,24.5h4v-1.532c0-0.996,0.494-1.927,1.323-2.479c1.613-1.074,2.677-2.905,2.677-4.989c0-3.736-3.416-6.676-7.295-5.864
				c-2.286,0.478-4.126,2.34-4.582,4.631c-0.51,2.559,0.61,4.901,2.506,6.19c0.577,0.393,1.008,0.951,1.222,1.592"/>
			<path id="XMLID_472_" fill="none" stroke="#455A64" stroke-linecap="round" stroke-linejoin="round" stroke-miterlimit="10" d="
				M20.5,26.5v1c0,0.553,0.447,1,1,1h2c0.553,0,1-0.447,1-1v-3"/>
			<path id="XMLID_471_" fill="none" stroke="#455A64" stroke-linecap="round" stroke-linejoin="round" stroke-miterlimit="10" d="
				M21,16.5h2.691c0.371,0,0.613,0.391,0.447,0.724L22.5,20.5v4"/>
			<path id="XMLID_469_" fill="none" stroke="#455A64" stroke-linecap="round" stroke-linejoin="round" stroke-miterlimit="10" d="
				M12.5,30.5V10.806l3.547-1.239c1.47-0.513,2.453-1.899,2.453-3.455V2.5c0-0.553-0.447-1-1-1s-1,0.447-1,1v3.56
				c0,0.731-0.478,1.376-1.177,1.59L12.536,8.5H7.355c-0.862,0-1.682,0.37-2.252,1.017l-1.381,1.567
				c-1.452,1.66-1.283,4.192,0.376,5.645l1.742,1.524c0.19,0.166,0.425,0.248,0.658,0.248H6.5l-2.016,12"/>
			<path id="XMLID_467_" fill="none" stroke="#455A64" stroke-linecap="round" stroke-linejoin="round" stroke-miterlimit="10" d="
				M6.5,16.171l-1.084-0.949c-0.831-0.727-0.916-1.991-0.188-2.822l1.097-1.253C6.386,11.078,6.5,11.121,6.5,11.213V13.5"/>
			<path id="XMLID_466_" fill="none" stroke="#455A64" stroke-linecap="round" stroke-linejoin="round" stroke-miterlimit="10" d="
				M5.416,15.223l1.742,1.524c0.416,0.364,0.458,0.995,0.094,1.411C7.055,18.384,6.777,18.5,6.499,18.5
				c-0.233,0-0.468-0.082-0.658-0.248l-1.742-1.524"/>
			
				<polyline id="XMLID_465_" fill="none" stroke="#455A64" stroke-linecap="round" stroke-linejoin="round" stroke-miterlimit="10" points="
				10.5,30.5 9.5,19 6.5,30.5 			"/>
			
				<circle id="XMLID_464_" fill="none" stroke="#455A64" stroke-linecap="round" stroke-linejoin="round" stroke-miterlimit="10" cx="10" cy="4" r="2.5"/>
			
				<line id="XMLID_463_" fill="none" stroke="#455A64" stroke-linecap="round" stroke-linejoin="round" stroke-miterlimit="10" x1="18.5" y1="30.5" x2="18.4" y2="30.5"/>
			
				<line id="XMLID_462_" fill="none" stroke="#455A64" stroke-linecap="round" stroke-linejoin="round" stroke-miterlimit="10" x1="16.5" y1="30.5" x2="12.5" y2="30.5"/>
			<path id="XMLID_461_" fill="none" stroke="#455A64" stroke-linecap="round" stroke-linejoin="round" stroke-miterlimit="10" d="
				M27.317,8.496c1.399,0.964,2.495,2.337,3.116,3.947"/>
			
				<line id="XMLID_460_" fill="none" stroke="#455A64" stroke-linecap="round" stroke-linejoin="round" stroke-miterlimit="10" x1="25.5" y1="7.5" x2="25.43" y2="7.47"/>
			
				<line id="XMLID_459_" fill="none" stroke="#455A64" stroke-linecap="round" stroke-linejoin="round" stroke-miterlimit="10" x1="22.5" y1="26.5" x2="24.5" y2="26.5"/>
		</g>
	</g>
</g>
</svg>
