<?xml version="1.0" encoding="utf-8"?>
<!-- Generator: Adobe Illustrator 16.0.0, SVG Export Plug-In . SVG Version: 6.00 Build 0)  -->
<!DOCTYPE svg PUBLIC "-//W3C//DTD SVG 1.1//EN" "http://www.w3.org/Graphics/SVG/1.1/DTD/svg11.dtd">
<svg version="1.1" id="_x3C_Layer_x3E_" xmlns="http://www.w3.org/2000/svg" xmlns:xlink="http://www.w3.org/1999/xlink" x="0px"
	 y="0px" width="32px" height="32px" viewBox="0 0 32 32" enable-background="new 0 0 32 32" xml:space="preserve">
<g id="success_x2C__achievement_x2C__winner_x2C__rejoicing_2_">
	<g id="XMLID_7614_">
		<g id="XMLID_7615_">
			<path id="XMLID_7639_" fill="none" stroke="#ffffff" stroke-linecap="round" stroke-linejoin="round" stroke-miterlimit="10" d="
				M19.5,26.5V10.251c2.471-0.574,4.604-2.146,5.427-4.174c0.818-2.02,1.05-3.354,1.06-3.41c0.092-0.544-0.273-1.059-0.817-1.151
				c-0.544-0.095-1.061,0.271-1.155,0.815c-0.002,0.012-0.212,1.196-0.94,2.994C22.352,7.105,19.904,8.5,17.5,8.5h-2
				c-2.418,0-4.816-1.369-5.578-3.186C9.18,3.542,8.99,2.36,8.988,2.352C8.907,1.805,8.393,1.435,7.852,1.511
				C7.306,1.593,6.93,2.103,7.012,2.648C7.02,2.705,7.229,4.064,8.078,6.088c0.846,2.019,2.976,3.584,5.422,4.16V26.5"/>
			
				<circle id="XMLID_7638_" fill="none" stroke="#ffffff" stroke-linecap="round" stroke-linejoin="round" stroke-miterlimit="10" cx="16.5" cy="4" r="2.5"/>
			
				<polyline id="XMLID_7637_" fill="none" stroke="#ffffff" stroke-linecap="round" stroke-linejoin="round" stroke-miterlimit="10" points="
				9.5,28.5 2.5,28.5 2.5,30.5 30.5,30.5 30.5,28.5 21.5,28.5 			"/>
			
				<polyline id="XMLID_7636_" fill="none" stroke="#ffffff" stroke-linecap="round" stroke-linejoin="round" stroke-miterlimit="10" points="
				21.5,30 21.5,26.5 11.5,26.5 11.5,28.5 			"/>
			
				<line id="XMLID_7635_" fill="none" stroke="#ffffff" stroke-linecap="round" stroke-linejoin="round" stroke-miterlimit="10" x1="22.5" y1="18.5" x2="23.5" y2="18.5"/>
			
				<line id="XMLID_7634_" fill="none" stroke="#ffffff" stroke-linecap="round" stroke-linejoin="round" stroke-miterlimit="10" x1="25.5" y1="18.5" x2="26.5" y2="18.5"/>
			
				<line id="XMLID_7633_" fill="none" stroke="#ffffff" stroke-linecap="round" stroke-linejoin="round" stroke-miterlimit="10" x1="24.5" y1="20.5" x2="24.5" y2="19.5"/>
			
				<line id="XMLID_7632_" fill="none" stroke="#ffffff" stroke-linecap="round" stroke-linejoin="round" stroke-miterlimit="10" x1="24.5" y1="17.5" x2="24.5" y2="16.5"/>
			
				<line id="XMLID_7631_" fill="none" stroke="#ffffff" stroke-linecap="round" stroke-linejoin="round" stroke-miterlimit="10" x1="5.5" y1="15.5" x2="6.5" y2="15.5"/>
			
				<line id="XMLID_7630_" fill="none" stroke="#ffffff" stroke-linecap="round" stroke-linejoin="round" stroke-miterlimit="10" x1="8.5" y1="15.5" x2="9.5" y2="15.5"/>
			
				<line id="XMLID_7629_" fill="none" stroke="#ffffff" stroke-linecap="round" stroke-linejoin="round" stroke-miterlimit="10" x1="7.5" y1="17.5" x2="7.5" y2="16.5"/>
			
				<line id="XMLID_7628_" fill="none" stroke="#ffffff" stroke-linecap="round" stroke-linejoin="round" stroke-miterlimit="10" x1="7.5" y1="14.5" x2="7.5" y2="13.5"/>
			
				<line id="XMLID_7627_" fill="none" stroke="#ffffff" stroke-linecap="round" stroke-linejoin="round" stroke-miterlimit="10" x1="9.5" y1="19.5" x2="9.5" y2="19.6"/>
			
				<line id="XMLID_7626_" fill="none" stroke="#ffffff" stroke-linecap="round" stroke-linejoin="round" stroke-miterlimit="10" x1="5.5" y1="21.4" x2="5.5" y2="21.5"/>
			
				<line id="XMLID_7625_" fill="none" stroke="#ffffff" stroke-linecap="round" stroke-linejoin="round" stroke-miterlimit="10" x1="3.5" y1="25.4" x2="3.5" y2="25.5"/>
			
				<line id="XMLID_7624_" fill="none" stroke="#ffffff" stroke-linecap="round" stroke-linejoin="round" stroke-miterlimit="10" x1="8.5" y1="23.5" x2="8.5" y2="23.6"/>
			
				<line id="XMLID_7623_" fill="none" stroke="#ffffff" stroke-linecap="round" stroke-linejoin="round" stroke-miterlimit="10" x1="23.5" y1="23.5" x2="23.5" y2="23.6"/>
			
				<line id="XMLID_7621_" fill="none" stroke="#ffffff" stroke-linecap="round" stroke-linejoin="round" stroke-miterlimit="10" x1="27.5" y1="25.4" x2="27.5" y2="25.5"/>
			
				<line id="XMLID_7620_" fill="none" stroke="#ffffff" stroke-linecap="round" stroke-linejoin="round" stroke-miterlimit="10" x1="26.5" y1="10.4" x2="26.5" y2="10.5"/>
			
				<line id="XMLID_7619_" fill="none" stroke="#ffffff" stroke-linecap="round" stroke-linejoin="round" stroke-miterlimit="10" x1="27.5" y1="14.5" x2="27.5" y2="14.6"/>
			
				<line id="XMLID_7618_" fill="none" stroke="#ffffff" stroke-linecap="round" stroke-linejoin="round" stroke-miterlimit="10" x1="23.5" y1="12.5" x2="23.5" y2="12.6"/>
			
				<line id="XMLID_7617_" fill="none" stroke="#ffffff" stroke-linecap="round" stroke-linejoin="round" stroke-miterlimit="10" x1="6.5" y1="10.5" x2="6.5" y2="10.6"/>
			
				<line id="XMLID_7616_" fill="none" stroke="#ffffff" stroke-linecap="round" stroke-linejoin="round" stroke-miterlimit="10" x1="16.5" y1="26.5" x2="16.5" y2="18.5"/>
		</g>
	</g>
	<g id="XMLID_7589_">
		<g id="XMLID_7590_">
			<path id="XMLID_7613_" fill="none" stroke="#ffffff" stroke-linecap="round" stroke-linejoin="round" stroke-miterlimit="10" d="
				M19.5,26.5V10.251c2.471-0.574,4.604-2.146,5.427-4.174c0.818-2.02,1.05-3.354,1.06-3.41c0.092-0.544-0.273-1.059-0.817-1.151
				c-0.544-0.095-1.061,0.271-1.155,0.815c-0.002,0.012-0.212,1.196-0.94,2.994C22.352,7.105,19.904,8.5,17.5,8.5h-2
				c-2.418,0-4.816-1.369-5.578-3.186C9.18,3.542,8.99,2.36,8.988,2.352C8.907,1.805,8.393,1.435,7.852,1.511
				C7.306,1.593,6.93,2.103,7.012,2.648C7.02,2.705,7.229,4.064,8.078,6.088c0.846,2.019,2.976,3.584,5.422,4.16V26.5"/>
			
				<circle id="XMLID_7612_" fill="none" stroke="#ffffff" stroke-linecap="round" stroke-linejoin="round" stroke-miterlimit="10" cx="16.5" cy="4" r="2.5"/>
			
				<polyline id="XMLID_7611_" fill="none" stroke="#ffffff" stroke-linecap="round" stroke-linejoin="round" stroke-miterlimit="10" points="
				9.5,28.5 2.5,28.5 2.5,30.5 30.5,30.5 30.5,28.5 21.5,28.5 			"/>
			
				<polyline id="XMLID_7610_" fill="none" stroke="#ffffff" stroke-linecap="round" stroke-linejoin="round" stroke-miterlimit="10" points="
				21.5,30 21.5,26.5 11.5,26.5 11.5,28.5 			"/>
			
				<line id="XMLID_7609_" fill="none" stroke="#ffffff" stroke-linecap="round" stroke-linejoin="round" stroke-miterlimit="10" x1="22.5" y1="18.5" x2="23.5" y2="18.5"/>
			
				<line id="XMLID_7608_" fill="none" stroke="#ffffff" stroke-linecap="round" stroke-linejoin="round" stroke-miterlimit="10" x1="25.5" y1="18.5" x2="26.5" y2="18.5"/>
			
				<line id="XMLID_7607_" fill="none" stroke="#ffffff" stroke-linecap="round" stroke-linejoin="round" stroke-miterlimit="10" x1="24.5" y1="20.5" x2="24.5" y2="19.5"/>
			
				<line id="XMLID_7606_" fill="none" stroke="#ffffff" stroke-linecap="round" stroke-linejoin="round" stroke-miterlimit="10" x1="24.5" y1="17.5" x2="24.5" y2="16.5"/>
			
				<line id="XMLID_7605_" fill="none" stroke="#ffffff" stroke-linecap="round" stroke-linejoin="round" stroke-miterlimit="10" x1="5.5" y1="15.5" x2="6.5" y2="15.5"/>
			
				<line id="XMLID_7604_" fill="none" stroke="#ffffff" stroke-linecap="round" stroke-linejoin="round" stroke-miterlimit="10" x1="8.5" y1="15.5" x2="9.5" y2="15.5"/>
			
				<line id="XMLID_7603_" fill="none" stroke="#ffffff" stroke-linecap="round" stroke-linejoin="round" stroke-miterlimit="10" x1="7.5" y1="17.5" x2="7.5" y2="16.5"/>
			
				<line id="XMLID_7602_" fill="none" stroke="#ffffff" stroke-linecap="round" stroke-linejoin="round" stroke-miterlimit="10" x1="7.5" y1="14.5" x2="7.5" y2="13.5"/>
			
				<line id="XMLID_7601_" fill="none" stroke="#ffffff" stroke-linecap="round" stroke-linejoin="round" stroke-miterlimit="10" x1="9.5" y1="19.5" x2="9.5" y2="19.6"/>
			
				<line id="XMLID_7600_" fill="none" stroke="#ffffff" stroke-linecap="round" stroke-linejoin="round" stroke-miterlimit="10" x1="5.5" y1="21.4" x2="5.5" y2="21.5"/>
			
				<line id="XMLID_7599_" fill="none" stroke="#ffffff" stroke-linecap="round" stroke-linejoin="round" stroke-miterlimit="10" x1="3.5" y1="25.4" x2="3.5" y2="25.5"/>
			
				<line id="XMLID_7598_" fill="none" stroke="#ffffff" stroke-linecap="round" stroke-linejoin="round" stroke-miterlimit="10" x1="8.5" y1="23.5" x2="8.5" y2="23.6"/>
			
				<line id="XMLID_7597_" fill="none" stroke="#ffffff" stroke-linecap="round" stroke-linejoin="round" stroke-miterlimit="10" x1="23.5" y1="23.5" x2="23.5" y2="23.6"/>
			
				<line id="XMLID_7596_" fill="none" stroke="#ffffff" stroke-linecap="round" stroke-linejoin="round" stroke-miterlimit="10" x1="27.5" y1="25.4" x2="27.5" y2="25.5"/>
			
				<line id="XMLID_7595_" fill="none" stroke="#ffffff" stroke-linecap="round" stroke-linejoin="round" stroke-miterlimit="10" x1="26.5" y1="10.4" x2="26.5" y2="10.5"/>
			
				<line id="XMLID_7594_" fill="none" stroke="#ffffff" stroke-linecap="round" stroke-linejoin="round" stroke-miterlimit="10" x1="27.5" y1="14.5" x2="27.5" y2="14.6"/>
			
				<line id="XMLID_7593_" fill="none" stroke="#ffffff" stroke-linecap="round" stroke-linejoin="round" stroke-miterlimit="10" x1="23.5" y1="12.5" x2="23.5" y2="12.6"/>
			
				<line id="XMLID_7592_" fill="none" stroke="#ffffff" stroke-linecap="round" stroke-linejoin="round" stroke-miterlimit="10" x1="6.5" y1="10.5" x2="6.5" y2="10.6"/>
			
				<line id="XMLID_7591_" fill="none" stroke="#ffffff" stroke-linecap="round" stroke-linejoin="round" stroke-miterlimit="10" x1="16.5" y1="26.5" x2="16.5" y2="18.5"/>
		</g>
	</g>
</g>
</svg>
