<?xml version="1.0" encoding="utf-8"?>
<!-- Generator: Adobe Illustrator 16.0.0, SVG Export Plug-In . SVG Version: 6.00 Build 0)  -->
<!DOCTYPE svg PUBLIC "-//W3C//DTD SVG 1.1//EN" "http://www.w3.org/Graphics/SVG/1.1/DTD/svg11.dtd">
<svg version="1.1" id="_x3C_Layer_x3E_" xmlns="http://www.w3.org/2000/svg" xmlns:xlink="http://www.w3.org/1999/xlink" x="0px"
	 y="0px" width="32px" height="32px" viewBox="0 0 32 32" enable-background="new 0 0 32 32" xml:space="preserve">
<g id="team_x2C__crew_x2C__group_10_">
	<g id="XMLID_46_">
		<path id="XMLID_3702_" fill="#F2590D" d="M13.5,10.5c2.214,0,7.42,0,8.5,0h4.5c1.657,0,3,1.343,3,3v7c0,0.55-0.45,1-1,1
			s-1-0.45-1-1L29.18,31h-2.133L24.5,21.5L23.709,31H21.5V12.5h-8c-0.553,0-1-0.447-1-1S12.947,10.5,13.5,10.5z"/>
		<path id="XMLID_3703_" fill="#F2590D" d="M17.5,10.5c-2.214,0-7.42,0-8.5,0H4.5c-1.657,0-3,1.343-3,3v7c0,0.55,0.45,1,1,1
			s1-0.45,1-1L1.82,31h2.133L6.5,21.5L7.291,31H9.5V12.5h8c0.553,0,1-0.447,1-1S18.053,10.5,17.5,10.5z"/>
		<path id="XMLID_3704_" fill="#F2590D" d="M26.5,8.5c-1.985,0-20.015,0-22,0c-0.553,0-1,0.447-1,1s0.447,1,1,1h8V31h6V10.5h8
			c0.553,0,1-0.447,1-1S27.053,8.5,26.5,8.5z"/>
		<circle id="XMLID_3726_" fill="#F2590D" cx="24.5" cy="6" r="2.5"/>
		<circle id="XMLID_3731_" fill="#F2590D" cx="15.5" cy="4" r="2.5"/>
		<circle id="XMLID_3736_" fill="#F2590D" cx="6.5" cy="6" r="2.5"/>
	</g>
	<g id="XMLID_45_">
		<g id="XMLID_3705_">
			<g id="XMLID_3706_">
				<g id="XMLID_3707_">
					<g id="XMLID_3708_">
						
							<path id="XMLID_3709_" fill="none" stroke="#455A64" stroke-linecap="round" stroke-linejoin="round" stroke-miterlimit="10" d="
							M18.5,10.5c0,0,2.42,0,3.5,0h4.5c1.657,0,3,1.343,3,3v7c0,0.55-0.45,1-1,1s-1-0.45-1-1l1.667,10"/>
						
							<polyline id="XMLID_3710_" fill="none" stroke="#455A64" stroke-linecap="round" stroke-linejoin="round" stroke-miterlimit="10" points="
							21.5,30.5 21.5,12.5 20.5,12.5 						"/>
					</g>
				</g>
			</g>
			<g id="XMLID_3711_">
				<g id="XMLID_3712_">
					<g id="XMLID_3713_">
						
							<path id="XMLID_3714_" fill="none" stroke="#455A64" stroke-linecap="round" stroke-linejoin="round" stroke-miterlimit="10" d="
							M12.5,10.5c0,0-2.42,0-3.5,0H4.5c-1.657,0-3,1.343-3,3v7c0,0.55,0.45,1,1,1s1-0.45,1-1l-1.667,10"/>
						
							<line id="XMLID_209_" fill="none" stroke="#455A64" stroke-linecap="round" stroke-linejoin="round" stroke-miterlimit="10" x1="15.5" y1="30.5" x2="15.5" y2="19.5"/>
						
							<polyline id="XMLID_3715_" fill="none" stroke="#455A64" stroke-linecap="round" stroke-linejoin="round" stroke-miterlimit="10" points="
							9.5,30.5 9.5,12.5 10.5,12.5 						"/>
					</g>
				</g>
			</g>
			
				<line id="XMLID_3716_" fill="none" stroke="#455A64" stroke-linecap="round" stroke-linejoin="round" stroke-miterlimit="10" x1="27.5" y1="14.5" x2="27.5" y2="20.5"/>
			
				<polyline id="XMLID_3717_" fill="none" stroke="#455A64" stroke-linecap="round" stroke-linejoin="round" stroke-miterlimit="10" points="
				23.674,30.5 24.5,21 26.974,30.484 			"/>
			
				<line id="XMLID_3718_" fill="none" stroke="#455A64" stroke-linecap="round" stroke-linejoin="round" stroke-miterlimit="10" x1="3.5" y1="14.5" x2="3.5" y2="20.5"/>
			
				<polyline id="XMLID_3719_" fill="none" stroke="#455A64" stroke-linecap="round" stroke-linejoin="round" stroke-miterlimit="10" points="
				7.326,30.5 6.5,21 4.026,30.484 			"/>
		</g>
		
			<line id="XMLID_3720_" fill="none" stroke="#455A64" stroke-linecap="round" stroke-linejoin="round" stroke-miterlimit="10" x1="20.5" y1="8.5" x2="10.5" y2="8.5"/>
		
			<polyline id="XMLID_3723_" fill="none" stroke="#455A64" stroke-linecap="round" stroke-linejoin="round" stroke-miterlimit="10" points="
			18.5,30.5 18.5,10.5 26.5,10.5 		"/>
		
			<polyline id="XMLID_3724_" fill="none" stroke="#455A64" stroke-linecap="round" stroke-linejoin="round" stroke-miterlimit="10" points="
			4.5,10.5 12.5,10.5 12.5,30.5 		"/>
		
			<circle id="XMLID_208_" fill="none" stroke="#455A64" stroke-linecap="round" stroke-linejoin="round" stroke-miterlimit="10" cx="24.5" cy="6" r="2.5"/>
		
			<circle id="XMLID_207_" fill="none" stroke="#455A64" stroke-linecap="round" stroke-linejoin="round" stroke-miterlimit="10" cx="15.5" cy="4" r="2.5"/>
		
			<circle id="XMLID_206_" fill="none" stroke="#455A64" stroke-linecap="round" stroke-linejoin="round" stroke-miterlimit="10" cx="6.5" cy="6" r="2.5"/>
	</g>
</g>
</svg>
