<?xml version="1.0" encoding="utf-8"?>
<!-- Generator: Adobe Illustrator 16.0.0, SVG Export Plug-In . SVG Version: 6.00 Build 0)  -->
<!DOCTYPE svg PUBLIC "-//W3C//DTD SVG 1.1//EN" "http://www.w3.org/Graphics/SVG/1.1/DTD/svg11.dtd">
<svg version="1.1" id="_x3C_Layer_x3E_" xmlns="http://www.w3.org/2000/svg" xmlns:xlink="http://www.w3.org/1999/xlink" x="0px"
	 y="0px" width="32px" height="32px" viewBox="0 0 32 32" enable-background="new 0 0 32 32" xml:space="preserve">
<g id="success_x2C__achievement_x2C__winner_x2C__rejoicing">
	<g id="XMLID_23_">
		<path id="XMLID_4094_" fill="#1DE9B6" d="M25.169,1.516c-0.544-0.095-1.061,0.271-1.155,0.815
			c-0.002,0.012-0.212,1.196-0.94,2.994C22.352,7.105,19.904,8.5,17.5,8.5h-2c-2.418,0-4.816-1.369-5.578-3.186
			C9.18,3.542,8.99,2.36,8.988,2.352C8.907,1.805,8.393,1.435,7.852,1.511C7.306,1.593,6.93,2.103,7.012,2.648
			C7.02,2.705,7.229,4.064,8.078,6.088c0.846,2.019,2.976,3.584,5.422,4.16V26.5h6V10.251c2.471-0.574,4.604-2.146,5.427-4.174
			c0.818-2.02,1.05-3.354,1.06-3.41C26.078,2.123,25.713,1.608,25.169,1.516z"/>
		<circle id="XMLID_15_" fill="#FFE0B2" cx="16.5" cy="4" r="2.5"/>
		<polygon id="XMLID_3955_" fill="#FFF176" points="21.5,28.5 21.5,26.5 11.5,26.5 11.5,28.5 2.5,28.5 2.5,30.5 30.5,30.5 
			30.5,28.5 		"/>
		<rect id="XMLID_3988_" x="11.5" y="26.5" fill="#FFF5A2" width="10" height="4"/>
	</g>
	<g id="XMLID_22_">
		<path id="XMLID_4093_" fill="none" stroke="#455A64" stroke-linecap="round" stroke-linejoin="round" stroke-miterlimit="10" d="
			M19.5,26.5V10.251c2.471-0.574,4.604-2.146,5.427-4.174c0.818-2.02,1.05-3.354,1.06-3.41c0.092-0.544-0.273-1.059-0.817-1.151
			c-0.544-0.095-1.061,0.271-1.155,0.815c-0.002,0.012-0.212,1.196-0.94,2.994C22.352,7.105,19.904,8.5,17.5,8.5h-2
			c-2.418,0-4.816-1.369-5.578-3.186C9.18,3.542,8.99,2.36,8.988,2.352C8.907,1.805,8.393,1.435,7.852,1.511
			C7.306,1.593,6.93,2.103,7.012,2.648C7.02,2.705,7.229,4.064,8.078,6.088c0.846,2.019,2.976,3.584,5.422,4.16V26.5"/>
		
			<circle id="XMLID_4091_" fill="none" stroke="#455A64" stroke-linecap="round" stroke-linejoin="round" stroke-miterlimit="10" cx="16.5" cy="4" r="2.5"/>
		
			<polyline id="XMLID_3989_" fill="none" stroke="#455A64" stroke-linecap="round" stroke-linejoin="round" stroke-miterlimit="10" points="
			9.5,28.5 2.5,28.5 2.5,30.5 30.5,30.5 30.5,28.5 21.5,28.5 		"/>
		
			<polyline id="XMLID_3990_" fill="none" stroke="#455A64" stroke-linecap="round" stroke-linejoin="round" stroke-miterlimit="10" points="
			21.5,30 21.5,26.5 11.5,26.5 11.5,28.5 		"/>
		
			<line id="XMLID_4081_" fill="none" stroke="#455A64" stroke-linecap="round" stroke-linejoin="round" stroke-miterlimit="10" x1="22.5" y1="18.5" x2="23.5" y2="18.5"/>
		
			<line id="XMLID_4080_" fill="none" stroke="#455A64" stroke-linecap="round" stroke-linejoin="round" stroke-miterlimit="10" x1="25.5" y1="18.5" x2="26.5" y2="18.5"/>
		
			<line id="XMLID_4079_" fill="none" stroke="#455A64" stroke-linecap="round" stroke-linejoin="round" stroke-miterlimit="10" x1="24.5" y1="20.5" x2="24.5" y2="19.5"/>
		
			<line id="XMLID_4078_" fill="none" stroke="#455A64" stroke-linecap="round" stroke-linejoin="round" stroke-miterlimit="10" x1="24.5" y1="17.5" x2="24.5" y2="16.5"/>
		
			<line id="XMLID_4077_" fill="none" stroke="#455A64" stroke-linecap="round" stroke-linejoin="round" stroke-miterlimit="10" x1="5.5" y1="15.5" x2="6.5" y2="15.5"/>
		
			<line id="XMLID_4076_" fill="none" stroke="#455A64" stroke-linecap="round" stroke-linejoin="round" stroke-miterlimit="10" x1="8.5" y1="15.5" x2="9.5" y2="15.5"/>
		
			<line id="XMLID_4074_" fill="none" stroke="#455A64" stroke-linecap="round" stroke-linejoin="round" stroke-miterlimit="10" x1="7.5" y1="17.5" x2="7.5" y2="16.5"/>
		
			<line id="XMLID_4075_" fill="none" stroke="#455A64" stroke-linecap="round" stroke-linejoin="round" stroke-miterlimit="10" x1="7.5" y1="14.5" x2="7.5" y2="13.5"/>
		
			<line id="XMLID_71_" fill="none" stroke="#455A64" stroke-linecap="round" stroke-linejoin="round" stroke-miterlimit="10" x1="9.5" y1="19.5" x2="9.5" y2="19.6"/>
		
			<line id="XMLID_70_" fill="none" stroke="#455A64" stroke-linecap="round" stroke-linejoin="round" stroke-miterlimit="10" x1="5.5" y1="21.4" x2="5.5" y2="21.5"/>
		
			<line id="XMLID_69_" fill="none" stroke="#455A64" stroke-linecap="round" stroke-linejoin="round" stroke-miterlimit="10" x1="3.5" y1="25.4" x2="3.5" y2="25.5"/>
		
			<line id="XMLID_68_" fill="none" stroke="#455A64" stroke-linecap="round" stroke-linejoin="round" stroke-miterlimit="10" x1="8.5" y1="23.5" x2="8.5" y2="23.6"/>
		
			<line id="XMLID_19_" fill="none" stroke="#455A64" stroke-linecap="round" stroke-linejoin="round" stroke-miterlimit="10" x1="23.5" y1="23.5" x2="23.5" y2="23.6"/>
		
			<line id="XMLID_18_" fill="none" stroke="#455A64" stroke-linecap="round" stroke-linejoin="round" stroke-miterlimit="10" x1="27.5" y1="25.4" x2="27.5" y2="25.5"/>
		
			<line id="XMLID_17_" fill="none" stroke="#455A64" stroke-linecap="round" stroke-linejoin="round" stroke-miterlimit="10" x1="26.5" y1="10.4" x2="26.5" y2="10.5"/>
		
			<line id="XMLID_16_" fill="none" stroke="#455A64" stroke-linecap="round" stroke-linejoin="round" stroke-miterlimit="10" x1="27.5" y1="14.5" x2="27.5" y2="14.6"/>
		
			<line id="XMLID_276_" fill="none" stroke="#455A64" stroke-linecap="round" stroke-linejoin="round" stroke-miterlimit="10" x1="23.5" y1="12.5" x2="23.5" y2="12.6"/>
		
			<line id="XMLID_72_" fill="none" stroke="#455A64" stroke-linecap="round" stroke-linejoin="round" stroke-miterlimit="10" x1="6.5" y1="10.5" x2="6.5" y2="10.6"/>
		
			<line id="XMLID_25_" fill="none" stroke="#455A64" stroke-linecap="round" stroke-linejoin="round" stroke-miterlimit="10" x1="16.5" y1="26.5" x2="16.5" y2="18.5"/>
	</g>
</g>
</svg>
